G04 EAGLE Gerber RS-274X export*
G75*
%MOMM*%
%FSLAX34Y34*%
%LPD*%
%INSolderpaste Bottom*%
%IPPOS*%
%AMOC8*
5,1,8,0,0,1.08239X$1,22.5*%
G01*
%ADD10C,0.102000*%
%ADD11C,0.100000*%
%ADD12C,0.099000*%


D10*
X97740Y384460D02*
X92760Y384460D01*
X92760Y395440D01*
X97740Y395440D01*
X97740Y384460D01*
X97740Y385429D02*
X92760Y385429D01*
X92760Y386398D02*
X97740Y386398D01*
X97740Y387367D02*
X92760Y387367D01*
X92760Y388336D02*
X97740Y388336D01*
X97740Y389305D02*
X92760Y389305D01*
X92760Y390274D02*
X97740Y390274D01*
X97740Y391243D02*
X92760Y391243D01*
X92760Y392212D02*
X97740Y392212D01*
X97740Y393181D02*
X92760Y393181D01*
X92760Y394150D02*
X97740Y394150D01*
X97740Y395119D02*
X92760Y395119D01*
X105460Y384460D02*
X110440Y384460D01*
X105460Y384460D02*
X105460Y395440D01*
X110440Y395440D01*
X110440Y384460D01*
X110440Y385429D02*
X105460Y385429D01*
X105460Y386398D02*
X110440Y386398D01*
X110440Y387367D02*
X105460Y387367D01*
X105460Y388336D02*
X110440Y388336D01*
X110440Y389305D02*
X105460Y389305D01*
X105460Y390274D02*
X110440Y390274D01*
X110440Y391243D02*
X105460Y391243D01*
X105460Y392212D02*
X110440Y392212D01*
X110440Y393181D02*
X105460Y393181D01*
X105460Y394150D02*
X110440Y394150D01*
X110440Y395119D02*
X105460Y395119D01*
X118160Y384460D02*
X123140Y384460D01*
X118160Y384460D02*
X118160Y395440D01*
X123140Y395440D01*
X123140Y384460D01*
X123140Y385429D02*
X118160Y385429D01*
X118160Y386398D02*
X123140Y386398D01*
X123140Y387367D02*
X118160Y387367D01*
X118160Y388336D02*
X123140Y388336D01*
X123140Y389305D02*
X118160Y389305D01*
X118160Y390274D02*
X123140Y390274D01*
X123140Y391243D02*
X118160Y391243D01*
X118160Y392212D02*
X123140Y392212D01*
X123140Y393181D02*
X118160Y393181D01*
X118160Y394150D02*
X123140Y394150D01*
X123140Y395119D02*
X118160Y395119D01*
X130860Y384460D02*
X135840Y384460D01*
X130860Y384460D02*
X130860Y395440D01*
X135840Y395440D01*
X135840Y384460D01*
X135840Y385429D02*
X130860Y385429D01*
X130860Y386398D02*
X135840Y386398D01*
X135840Y387367D02*
X130860Y387367D01*
X130860Y388336D02*
X135840Y388336D01*
X135840Y389305D02*
X130860Y389305D01*
X130860Y390274D02*
X135840Y390274D01*
X135840Y391243D02*
X130860Y391243D01*
X130860Y392212D02*
X135840Y392212D01*
X135840Y393181D02*
X130860Y393181D01*
X130860Y394150D02*
X135840Y394150D01*
X135840Y395119D02*
X130860Y395119D01*
X143560Y384460D02*
X148540Y384460D01*
X143560Y384460D02*
X143560Y395440D01*
X148540Y395440D01*
X148540Y384460D01*
X148540Y385429D02*
X143560Y385429D01*
X143560Y386398D02*
X148540Y386398D01*
X148540Y387367D02*
X143560Y387367D01*
X143560Y388336D02*
X148540Y388336D01*
X148540Y389305D02*
X143560Y389305D01*
X143560Y390274D02*
X148540Y390274D01*
X148540Y391243D02*
X143560Y391243D01*
X143560Y392212D02*
X148540Y392212D01*
X148540Y393181D02*
X143560Y393181D01*
X143560Y394150D02*
X148540Y394150D01*
X148540Y395119D02*
X143560Y395119D01*
X156260Y384460D02*
X161240Y384460D01*
X156260Y384460D02*
X156260Y395440D01*
X161240Y395440D01*
X161240Y384460D01*
X161240Y385429D02*
X156260Y385429D01*
X156260Y386398D02*
X161240Y386398D01*
X161240Y387367D02*
X156260Y387367D01*
X156260Y388336D02*
X161240Y388336D01*
X161240Y389305D02*
X156260Y389305D01*
X156260Y390274D02*
X161240Y390274D01*
X161240Y391243D02*
X156260Y391243D01*
X156260Y392212D02*
X161240Y392212D01*
X161240Y393181D02*
X156260Y393181D01*
X156260Y394150D02*
X161240Y394150D01*
X161240Y395119D02*
X156260Y395119D01*
X168960Y384460D02*
X173940Y384460D01*
X168960Y384460D02*
X168960Y395440D01*
X173940Y395440D01*
X173940Y384460D01*
X173940Y385429D02*
X168960Y385429D01*
X168960Y386398D02*
X173940Y386398D01*
X173940Y387367D02*
X168960Y387367D01*
X168960Y388336D02*
X173940Y388336D01*
X173940Y389305D02*
X168960Y389305D01*
X168960Y390274D02*
X173940Y390274D01*
X173940Y391243D02*
X168960Y391243D01*
X168960Y392212D02*
X173940Y392212D01*
X173940Y393181D02*
X168960Y393181D01*
X168960Y394150D02*
X173940Y394150D01*
X173940Y395119D02*
X168960Y395119D01*
X181660Y384460D02*
X186640Y384460D01*
X181660Y384460D02*
X181660Y395440D01*
X186640Y395440D01*
X186640Y384460D01*
X186640Y385429D02*
X181660Y385429D01*
X181660Y386398D02*
X186640Y386398D01*
X186640Y387367D02*
X181660Y387367D01*
X181660Y388336D02*
X186640Y388336D01*
X186640Y389305D02*
X181660Y389305D01*
X181660Y390274D02*
X186640Y390274D01*
X186640Y391243D02*
X181660Y391243D01*
X181660Y392212D02*
X186640Y392212D01*
X186640Y393181D02*
X181660Y393181D01*
X181660Y394150D02*
X186640Y394150D01*
X186640Y395119D02*
X181660Y395119D01*
X181660Y328460D02*
X186640Y328460D01*
X181660Y328460D02*
X181660Y339440D01*
X186640Y339440D01*
X186640Y328460D01*
X186640Y329429D02*
X181660Y329429D01*
X181660Y330398D02*
X186640Y330398D01*
X186640Y331367D02*
X181660Y331367D01*
X181660Y332336D02*
X186640Y332336D01*
X186640Y333305D02*
X181660Y333305D01*
X181660Y334274D02*
X186640Y334274D01*
X186640Y335243D02*
X181660Y335243D01*
X181660Y336212D02*
X186640Y336212D01*
X186640Y337181D02*
X181660Y337181D01*
X181660Y338150D02*
X186640Y338150D01*
X186640Y339119D02*
X181660Y339119D01*
X173940Y328460D02*
X168960Y328460D01*
X168960Y339440D01*
X173940Y339440D01*
X173940Y328460D01*
X173940Y329429D02*
X168960Y329429D01*
X168960Y330398D02*
X173940Y330398D01*
X173940Y331367D02*
X168960Y331367D01*
X168960Y332336D02*
X173940Y332336D01*
X173940Y333305D02*
X168960Y333305D01*
X168960Y334274D02*
X173940Y334274D01*
X173940Y335243D02*
X168960Y335243D01*
X168960Y336212D02*
X173940Y336212D01*
X173940Y337181D02*
X168960Y337181D01*
X168960Y338150D02*
X173940Y338150D01*
X173940Y339119D02*
X168960Y339119D01*
X161240Y328460D02*
X156260Y328460D01*
X156260Y339440D01*
X161240Y339440D01*
X161240Y328460D01*
X161240Y329429D02*
X156260Y329429D01*
X156260Y330398D02*
X161240Y330398D01*
X161240Y331367D02*
X156260Y331367D01*
X156260Y332336D02*
X161240Y332336D01*
X161240Y333305D02*
X156260Y333305D01*
X156260Y334274D02*
X161240Y334274D01*
X161240Y335243D02*
X156260Y335243D01*
X156260Y336212D02*
X161240Y336212D01*
X161240Y337181D02*
X156260Y337181D01*
X156260Y338150D02*
X161240Y338150D01*
X161240Y339119D02*
X156260Y339119D01*
X148540Y328460D02*
X143560Y328460D01*
X143560Y339440D01*
X148540Y339440D01*
X148540Y328460D01*
X148540Y329429D02*
X143560Y329429D01*
X143560Y330398D02*
X148540Y330398D01*
X148540Y331367D02*
X143560Y331367D01*
X143560Y332336D02*
X148540Y332336D01*
X148540Y333305D02*
X143560Y333305D01*
X143560Y334274D02*
X148540Y334274D01*
X148540Y335243D02*
X143560Y335243D01*
X143560Y336212D02*
X148540Y336212D01*
X148540Y337181D02*
X143560Y337181D01*
X143560Y338150D02*
X148540Y338150D01*
X148540Y339119D02*
X143560Y339119D01*
X135840Y328460D02*
X130860Y328460D01*
X130860Y339440D01*
X135840Y339440D01*
X135840Y328460D01*
X135840Y329429D02*
X130860Y329429D01*
X130860Y330398D02*
X135840Y330398D01*
X135840Y331367D02*
X130860Y331367D01*
X130860Y332336D02*
X135840Y332336D01*
X135840Y333305D02*
X130860Y333305D01*
X130860Y334274D02*
X135840Y334274D01*
X135840Y335243D02*
X130860Y335243D01*
X130860Y336212D02*
X135840Y336212D01*
X135840Y337181D02*
X130860Y337181D01*
X130860Y338150D02*
X135840Y338150D01*
X135840Y339119D02*
X130860Y339119D01*
X123140Y328460D02*
X118160Y328460D01*
X118160Y339440D01*
X123140Y339440D01*
X123140Y328460D01*
X123140Y329429D02*
X118160Y329429D01*
X118160Y330398D02*
X123140Y330398D01*
X123140Y331367D02*
X118160Y331367D01*
X118160Y332336D02*
X123140Y332336D01*
X123140Y333305D02*
X118160Y333305D01*
X118160Y334274D02*
X123140Y334274D01*
X123140Y335243D02*
X118160Y335243D01*
X118160Y336212D02*
X123140Y336212D01*
X123140Y337181D02*
X118160Y337181D01*
X118160Y338150D02*
X123140Y338150D01*
X123140Y339119D02*
X118160Y339119D01*
X110440Y328460D02*
X105460Y328460D01*
X105460Y339440D01*
X110440Y339440D01*
X110440Y328460D01*
X110440Y329429D02*
X105460Y329429D01*
X105460Y330398D02*
X110440Y330398D01*
X110440Y331367D02*
X105460Y331367D01*
X105460Y332336D02*
X110440Y332336D01*
X110440Y333305D02*
X105460Y333305D01*
X105460Y334274D02*
X110440Y334274D01*
X110440Y335243D02*
X105460Y335243D01*
X105460Y336212D02*
X110440Y336212D01*
X110440Y337181D02*
X105460Y337181D01*
X105460Y338150D02*
X110440Y338150D01*
X110440Y339119D02*
X105460Y339119D01*
X97740Y328460D02*
X92760Y328460D01*
X92760Y339440D01*
X97740Y339440D01*
X97740Y328460D01*
X97740Y329429D02*
X92760Y329429D01*
X92760Y330398D02*
X97740Y330398D01*
X97740Y331367D02*
X92760Y331367D01*
X92760Y332336D02*
X97740Y332336D01*
X97740Y333305D02*
X92760Y333305D01*
X92760Y334274D02*
X97740Y334274D01*
X97740Y335243D02*
X92760Y335243D01*
X92760Y336212D02*
X97740Y336212D01*
X97740Y337181D02*
X92760Y337181D01*
X92760Y338150D02*
X97740Y338150D01*
X97740Y339119D02*
X92760Y339119D01*
D11*
X186000Y460700D02*
X186000Y470700D01*
X195000Y470700D01*
X195000Y460700D01*
X186000Y460700D01*
X186000Y461650D02*
X195000Y461650D01*
X195000Y462600D02*
X186000Y462600D01*
X186000Y463550D02*
X195000Y463550D01*
X195000Y464500D02*
X186000Y464500D01*
X186000Y465450D02*
X195000Y465450D01*
X195000Y466400D02*
X186000Y466400D01*
X186000Y467350D02*
X195000Y467350D01*
X195000Y468300D02*
X186000Y468300D01*
X186000Y469250D02*
X195000Y469250D01*
X195000Y470200D02*
X186000Y470200D01*
X186000Y453700D02*
X186000Y443700D01*
X186000Y453700D02*
X195000Y453700D01*
X195000Y443700D01*
X186000Y443700D01*
X186000Y444650D02*
X195000Y444650D01*
X195000Y445600D02*
X186000Y445600D01*
X186000Y446550D02*
X195000Y446550D01*
X195000Y447500D02*
X186000Y447500D01*
X186000Y448450D02*
X195000Y448450D01*
X195000Y449400D02*
X186000Y449400D01*
X186000Y450350D02*
X195000Y450350D01*
X195000Y451300D02*
X186000Y451300D01*
X186000Y452250D02*
X195000Y452250D01*
X195000Y453200D02*
X186000Y453200D01*
X98100Y405710D02*
X88100Y405710D01*
X88100Y414710D01*
X98100Y414710D01*
X98100Y405710D01*
X98100Y406660D02*
X88100Y406660D01*
X88100Y407610D02*
X98100Y407610D01*
X98100Y408560D02*
X88100Y408560D01*
X88100Y409510D02*
X98100Y409510D01*
X98100Y410460D02*
X88100Y410460D01*
X88100Y411410D02*
X98100Y411410D01*
X98100Y412360D02*
X88100Y412360D01*
X88100Y413310D02*
X98100Y413310D01*
X98100Y414260D02*
X88100Y414260D01*
X105100Y405710D02*
X115100Y405710D01*
X105100Y405710D02*
X105100Y414710D01*
X115100Y414710D01*
X115100Y405710D01*
X115100Y406660D02*
X105100Y406660D01*
X105100Y407610D02*
X115100Y407610D01*
X115100Y408560D02*
X105100Y408560D01*
X105100Y409510D02*
X115100Y409510D01*
X115100Y410460D02*
X105100Y410460D01*
X105100Y411410D02*
X115100Y411410D01*
X115100Y412360D02*
X105100Y412360D01*
X105100Y413310D02*
X115100Y413310D01*
X115100Y414260D02*
X105100Y414260D01*
X202400Y440000D02*
X212400Y440000D01*
X202400Y440000D02*
X202400Y449000D01*
X212400Y449000D01*
X212400Y440000D01*
X212400Y440950D02*
X202400Y440950D01*
X202400Y441900D02*
X212400Y441900D01*
X212400Y442850D02*
X202400Y442850D01*
X202400Y443800D02*
X212400Y443800D01*
X212400Y444750D02*
X202400Y444750D01*
X202400Y445700D02*
X212400Y445700D01*
X212400Y446650D02*
X202400Y446650D01*
X202400Y447600D02*
X212400Y447600D01*
X212400Y448550D02*
X202400Y448550D01*
X219400Y440000D02*
X229400Y440000D01*
X219400Y440000D02*
X219400Y449000D01*
X229400Y449000D01*
X229400Y440000D01*
X229400Y440950D02*
X219400Y440950D01*
X219400Y441900D02*
X229400Y441900D01*
X229400Y442850D02*
X219400Y442850D01*
X219400Y443800D02*
X229400Y443800D01*
X229400Y444750D02*
X219400Y444750D01*
X219400Y445700D02*
X229400Y445700D01*
X229400Y446650D02*
X219400Y446650D01*
X219400Y447600D02*
X229400Y447600D01*
X229400Y448550D02*
X219400Y448550D01*
X219400Y429950D02*
X229400Y429950D01*
X229400Y420950D01*
X219400Y420950D01*
X219400Y429950D01*
X219400Y421900D02*
X229400Y421900D01*
X229400Y422850D02*
X219400Y422850D01*
X219400Y423800D02*
X229400Y423800D01*
X229400Y424750D02*
X219400Y424750D01*
X219400Y425700D02*
X229400Y425700D01*
X229400Y426650D02*
X219400Y426650D01*
X219400Y427600D02*
X229400Y427600D01*
X229400Y428550D02*
X219400Y428550D01*
X219400Y429500D02*
X229400Y429500D01*
X212400Y429950D02*
X202400Y429950D01*
X212400Y429950D02*
X212400Y420950D01*
X202400Y420950D01*
X202400Y429950D01*
X202400Y421900D02*
X212400Y421900D01*
X212400Y422850D02*
X202400Y422850D01*
X202400Y423800D02*
X212400Y423800D01*
X212400Y424750D02*
X202400Y424750D01*
X202400Y425700D02*
X212400Y425700D01*
X212400Y426650D02*
X202400Y426650D01*
X202400Y427600D02*
X212400Y427600D01*
X212400Y428550D02*
X202400Y428550D01*
X202400Y429500D02*
X212400Y429500D01*
X77000Y334700D02*
X67000Y334700D01*
X77000Y334700D02*
X77000Y325700D01*
X67000Y325700D01*
X67000Y334700D01*
X67000Y326650D02*
X77000Y326650D01*
X77000Y327600D02*
X67000Y327600D01*
X67000Y328550D02*
X77000Y328550D01*
X77000Y329500D02*
X67000Y329500D01*
X67000Y330450D02*
X77000Y330450D01*
X77000Y331400D02*
X67000Y331400D01*
X67000Y332350D02*
X77000Y332350D01*
X77000Y333300D02*
X67000Y333300D01*
X67000Y334250D02*
X77000Y334250D01*
X60000Y334700D02*
X50000Y334700D01*
X60000Y334700D02*
X60000Y325700D01*
X50000Y325700D01*
X50000Y334700D01*
X50000Y326650D02*
X60000Y326650D01*
X60000Y327600D02*
X50000Y327600D01*
X50000Y328550D02*
X60000Y328550D01*
X60000Y329500D02*
X50000Y329500D01*
X50000Y330450D02*
X60000Y330450D01*
X60000Y331400D02*
X50000Y331400D01*
X50000Y332350D02*
X60000Y332350D01*
X60000Y333300D02*
X50000Y333300D01*
X50000Y334250D02*
X60000Y334250D01*
D12*
X159896Y421265D02*
X159896Y425775D01*
X172406Y425775D01*
X172406Y421265D01*
X159896Y421265D01*
X159896Y422205D02*
X172406Y422205D01*
X172406Y423145D02*
X159896Y423145D01*
X159896Y424085D02*
X172406Y424085D01*
X172406Y425025D02*
X159896Y425025D01*
X159896Y416275D02*
X159896Y411765D01*
X159896Y416275D02*
X172406Y416275D01*
X172406Y411765D01*
X159896Y411765D01*
X159896Y412705D02*
X172406Y412705D01*
X172406Y413645D02*
X159896Y413645D01*
X159896Y414585D02*
X172406Y414585D01*
X172406Y415525D02*
X159896Y415525D01*
X159896Y406775D02*
X159896Y402265D01*
X159896Y406775D02*
X172406Y406775D01*
X172406Y402265D01*
X159896Y402265D01*
X159896Y403205D02*
X172406Y403205D01*
X172406Y404145D02*
X159896Y404145D01*
X159896Y405085D02*
X172406Y405085D01*
X172406Y406025D02*
X159896Y406025D01*
X132394Y406775D02*
X132394Y402265D01*
X132394Y406775D02*
X144904Y406775D01*
X144904Y402265D01*
X132394Y402265D01*
X132394Y403205D02*
X144904Y403205D01*
X144904Y404145D02*
X132394Y404145D01*
X132394Y405085D02*
X144904Y405085D01*
X144904Y406025D02*
X132394Y406025D01*
X132394Y411765D02*
X132394Y416275D01*
X144904Y416275D01*
X144904Y411765D01*
X132394Y411765D01*
X132394Y412705D02*
X144904Y412705D01*
X144904Y413645D02*
X132394Y413645D01*
X132394Y414585D02*
X144904Y414585D01*
X144904Y415525D02*
X132394Y415525D01*
X132394Y421265D02*
X132394Y425775D01*
X144904Y425775D01*
X144904Y421265D01*
X132394Y421265D01*
X132394Y422205D02*
X144904Y422205D01*
X144904Y423145D02*
X132394Y423145D01*
X132394Y424085D02*
X144904Y424085D01*
X144904Y425025D02*
X132394Y425025D01*
D11*
X102400Y429950D02*
X92400Y429950D01*
X102400Y429950D02*
X102400Y420950D01*
X92400Y420950D01*
X92400Y429950D01*
X92400Y421900D02*
X102400Y421900D01*
X102400Y422850D02*
X92400Y422850D01*
X92400Y423800D02*
X102400Y423800D01*
X102400Y424750D02*
X92400Y424750D01*
X92400Y425700D02*
X102400Y425700D01*
X102400Y426650D02*
X92400Y426650D01*
X92400Y427600D02*
X102400Y427600D01*
X102400Y428550D02*
X92400Y428550D01*
X92400Y429500D02*
X102400Y429500D01*
X85400Y429950D02*
X75400Y429950D01*
X85400Y429950D02*
X85400Y420950D01*
X75400Y420950D01*
X75400Y429950D01*
X75400Y421900D02*
X85400Y421900D01*
X85400Y422850D02*
X75400Y422850D01*
X75400Y423800D02*
X85400Y423800D01*
X85400Y424750D02*
X75400Y424750D01*
X75400Y425700D02*
X85400Y425700D01*
X85400Y426650D02*
X75400Y426650D01*
X75400Y427600D02*
X85400Y427600D01*
X85400Y428550D02*
X75400Y428550D01*
X75400Y429500D02*
X85400Y429500D01*
X80700Y352100D02*
X80700Y342100D01*
X71700Y342100D01*
X71700Y352100D01*
X80700Y352100D01*
X80700Y343050D02*
X71700Y343050D01*
X71700Y344000D02*
X80700Y344000D01*
X80700Y344950D02*
X71700Y344950D01*
X71700Y345900D02*
X80700Y345900D01*
X80700Y346850D02*
X71700Y346850D01*
X71700Y347800D02*
X80700Y347800D01*
X80700Y348750D02*
X71700Y348750D01*
X71700Y349700D02*
X80700Y349700D01*
X80700Y350650D02*
X71700Y350650D01*
X71700Y351600D02*
X80700Y351600D01*
X80700Y359100D02*
X80700Y369100D01*
X80700Y359100D02*
X71700Y359100D01*
X71700Y369100D01*
X80700Y369100D01*
X80700Y360050D02*
X71700Y360050D01*
X71700Y361000D02*
X80700Y361000D01*
X80700Y361950D02*
X71700Y361950D01*
X71700Y362900D02*
X80700Y362900D01*
X80700Y363850D02*
X71700Y363850D01*
X71700Y364800D02*
X80700Y364800D01*
X80700Y365750D02*
X71700Y365750D01*
X71700Y366700D02*
X80700Y366700D01*
X80700Y367650D02*
X71700Y367650D01*
X71700Y368600D02*
X80700Y368600D01*
D12*
X119504Y292475D02*
X119504Y287965D01*
X108494Y287965D01*
X108494Y292475D01*
X119504Y292475D01*
X119504Y288905D02*
X108494Y288905D01*
X108494Y289845D02*
X119504Y289845D01*
X119504Y290785D02*
X108494Y290785D01*
X108494Y291725D02*
X119504Y291725D01*
X119504Y297465D02*
X119504Y301975D01*
X119504Y297465D02*
X108494Y297465D01*
X108494Y301975D01*
X119504Y301975D01*
X119504Y298405D02*
X108494Y298405D01*
X108494Y299345D02*
X119504Y299345D01*
X119504Y300285D02*
X108494Y300285D01*
X108494Y301225D02*
X119504Y301225D01*
X119504Y306965D02*
X119504Y311475D01*
X119504Y306965D02*
X108494Y306965D01*
X108494Y311475D01*
X119504Y311475D01*
X119504Y307905D02*
X108494Y307905D01*
X108494Y308845D02*
X119504Y308845D01*
X119504Y309785D02*
X108494Y309785D01*
X108494Y310725D02*
X119504Y310725D01*
X145506Y311475D02*
X145506Y306965D01*
X134496Y306965D01*
X134496Y311475D01*
X145506Y311475D01*
X145506Y307905D02*
X134496Y307905D01*
X134496Y308845D02*
X145506Y308845D01*
X145506Y309785D02*
X134496Y309785D01*
X134496Y310725D02*
X145506Y310725D01*
X145506Y292475D02*
X145506Y287965D01*
X134496Y287965D01*
X134496Y292475D01*
X145506Y292475D01*
X145506Y288905D02*
X134496Y288905D01*
X134496Y289845D02*
X145506Y289845D01*
X145506Y290785D02*
X134496Y290785D01*
X134496Y291725D02*
X145506Y291725D01*
D11*
X123500Y269820D02*
X113500Y269820D01*
X113500Y278820D01*
X123500Y278820D01*
X123500Y269820D01*
X123500Y270770D02*
X113500Y270770D01*
X113500Y271720D02*
X123500Y271720D01*
X123500Y272670D02*
X113500Y272670D01*
X113500Y273620D02*
X123500Y273620D01*
X123500Y274570D02*
X113500Y274570D01*
X113500Y275520D02*
X123500Y275520D01*
X123500Y276470D02*
X113500Y276470D01*
X113500Y277420D02*
X123500Y277420D01*
X123500Y278370D02*
X113500Y278370D01*
X130500Y269820D02*
X140500Y269820D01*
X130500Y269820D02*
X130500Y278820D01*
X140500Y278820D01*
X140500Y269820D01*
X140500Y270770D02*
X130500Y270770D01*
X130500Y271720D02*
X140500Y271720D01*
X140500Y272670D02*
X130500Y272670D01*
X130500Y273620D02*
X140500Y273620D01*
X140500Y274570D02*
X130500Y274570D01*
X130500Y275520D02*
X140500Y275520D01*
X140500Y276470D02*
X130500Y276470D01*
X130500Y277420D02*
X140500Y277420D01*
X140500Y278370D02*
X130500Y278370D01*
X101020Y286220D02*
X101020Y296220D01*
X101020Y286220D02*
X92020Y286220D01*
X92020Y296220D01*
X101020Y296220D01*
X101020Y287170D02*
X92020Y287170D01*
X92020Y288120D02*
X101020Y288120D01*
X101020Y289070D02*
X92020Y289070D01*
X92020Y290020D02*
X101020Y290020D01*
X101020Y290970D02*
X92020Y290970D01*
X92020Y291920D02*
X101020Y291920D01*
X101020Y292870D02*
X92020Y292870D01*
X92020Y293820D02*
X101020Y293820D01*
X101020Y294770D02*
X92020Y294770D01*
X92020Y295720D02*
X101020Y295720D01*
X101020Y303220D02*
X101020Y313220D01*
X101020Y303220D02*
X92020Y303220D01*
X92020Y313220D01*
X101020Y313220D01*
X101020Y304170D02*
X92020Y304170D01*
X92020Y305120D02*
X101020Y305120D01*
X101020Y306070D02*
X92020Y306070D01*
X92020Y307020D02*
X101020Y307020D01*
X101020Y307970D02*
X92020Y307970D01*
X92020Y308920D02*
X101020Y308920D01*
X101020Y309870D02*
X92020Y309870D01*
X92020Y310820D02*
X101020Y310820D01*
X101020Y311770D02*
X92020Y311770D01*
X92020Y312720D02*
X101020Y312720D01*
D12*
X102545Y223396D02*
X107055Y223396D01*
X102545Y223396D02*
X102545Y234406D01*
X107055Y234406D01*
X107055Y223396D01*
X107055Y224336D02*
X102545Y224336D01*
X102545Y225276D02*
X107055Y225276D01*
X107055Y226216D02*
X102545Y226216D01*
X102545Y227156D02*
X107055Y227156D01*
X107055Y228096D02*
X102545Y228096D01*
X102545Y229036D02*
X107055Y229036D01*
X107055Y229976D02*
X102545Y229976D01*
X102545Y230916D02*
X107055Y230916D01*
X107055Y231856D02*
X102545Y231856D01*
X102545Y232796D02*
X107055Y232796D01*
X107055Y233736D02*
X102545Y233736D01*
X112045Y223396D02*
X116555Y223396D01*
X112045Y223396D02*
X112045Y234406D01*
X116555Y234406D01*
X116555Y223396D01*
X116555Y224336D02*
X112045Y224336D01*
X112045Y225276D02*
X116555Y225276D01*
X116555Y226216D02*
X112045Y226216D01*
X112045Y227156D02*
X116555Y227156D01*
X116555Y228096D02*
X112045Y228096D01*
X112045Y229036D02*
X116555Y229036D01*
X116555Y229976D02*
X112045Y229976D01*
X112045Y230916D02*
X116555Y230916D01*
X116555Y231856D02*
X112045Y231856D01*
X112045Y232796D02*
X116555Y232796D01*
X116555Y233736D02*
X112045Y233736D01*
X121545Y223396D02*
X126055Y223396D01*
X121545Y223396D02*
X121545Y234406D01*
X126055Y234406D01*
X126055Y223396D01*
X126055Y224336D02*
X121545Y224336D01*
X121545Y225276D02*
X126055Y225276D01*
X126055Y226216D02*
X121545Y226216D01*
X121545Y227156D02*
X126055Y227156D01*
X126055Y228096D02*
X121545Y228096D01*
X121545Y229036D02*
X126055Y229036D01*
X126055Y229976D02*
X121545Y229976D01*
X121545Y230916D02*
X126055Y230916D01*
X126055Y231856D02*
X121545Y231856D01*
X121545Y232796D02*
X126055Y232796D01*
X126055Y233736D02*
X121545Y233736D01*
X121545Y197394D02*
X126055Y197394D01*
X121545Y197394D02*
X121545Y208404D01*
X126055Y208404D01*
X126055Y197394D01*
X126055Y198334D02*
X121545Y198334D01*
X121545Y199274D02*
X126055Y199274D01*
X126055Y200214D02*
X121545Y200214D01*
X121545Y201154D02*
X126055Y201154D01*
X126055Y202094D02*
X121545Y202094D01*
X121545Y203034D02*
X126055Y203034D01*
X126055Y203974D02*
X121545Y203974D01*
X121545Y204914D02*
X126055Y204914D01*
X126055Y205854D02*
X121545Y205854D01*
X121545Y206794D02*
X126055Y206794D01*
X126055Y207734D02*
X121545Y207734D01*
X107055Y197394D02*
X102545Y197394D01*
X102545Y208404D01*
X107055Y208404D01*
X107055Y197394D01*
X107055Y198334D02*
X102545Y198334D01*
X102545Y199274D02*
X107055Y199274D01*
X107055Y200214D02*
X102545Y200214D01*
X102545Y201154D02*
X107055Y201154D01*
X107055Y202094D02*
X102545Y202094D01*
X102545Y203034D02*
X107055Y203034D01*
X107055Y203974D02*
X102545Y203974D01*
X102545Y204914D02*
X107055Y204914D01*
X107055Y205854D02*
X102545Y205854D01*
X102545Y206794D02*
X107055Y206794D01*
X107055Y207734D02*
X102545Y207734D01*
D11*
X100800Y245690D02*
X110800Y245690D01*
X100800Y245690D02*
X100800Y254690D01*
X110800Y254690D01*
X110800Y245690D01*
X110800Y246640D02*
X100800Y246640D01*
X100800Y247590D02*
X110800Y247590D01*
X110800Y248540D02*
X100800Y248540D01*
X100800Y249490D02*
X110800Y249490D01*
X110800Y250440D02*
X100800Y250440D01*
X100800Y251390D02*
X110800Y251390D01*
X110800Y252340D02*
X100800Y252340D01*
X100800Y253290D02*
X110800Y253290D01*
X110800Y254240D02*
X100800Y254240D01*
X117800Y245690D02*
X127800Y245690D01*
X117800Y245690D02*
X117800Y254690D01*
X127800Y254690D01*
X127800Y245690D01*
X127800Y246640D02*
X117800Y246640D01*
X117800Y247590D02*
X127800Y247590D01*
X127800Y248540D02*
X117800Y248540D01*
X117800Y249490D02*
X127800Y249490D01*
X127800Y250440D02*
X117800Y250440D01*
X117800Y251390D02*
X127800Y251390D01*
X127800Y252340D02*
X117800Y252340D01*
X117800Y253290D02*
X127800Y253290D01*
X127800Y254240D02*
X117800Y254240D01*
X84400Y229400D02*
X84400Y219400D01*
X84400Y229400D02*
X93400Y229400D01*
X93400Y219400D01*
X84400Y219400D01*
X84400Y220350D02*
X93400Y220350D01*
X93400Y221300D02*
X84400Y221300D01*
X84400Y222250D02*
X93400Y222250D01*
X93400Y223200D02*
X84400Y223200D01*
X84400Y224150D02*
X93400Y224150D01*
X93400Y225100D02*
X84400Y225100D01*
X84400Y226050D02*
X93400Y226050D01*
X93400Y227000D02*
X84400Y227000D01*
X84400Y227950D02*
X93400Y227950D01*
X93400Y228900D02*
X84400Y228900D01*
X84400Y212400D02*
X84400Y202400D01*
X84400Y212400D02*
X93400Y212400D01*
X93400Y202400D01*
X84400Y202400D01*
X84400Y203350D02*
X93400Y203350D01*
X93400Y204300D02*
X84400Y204300D01*
X84400Y205250D02*
X93400Y205250D01*
X93400Y206200D02*
X84400Y206200D01*
X84400Y207150D02*
X93400Y207150D01*
X93400Y208100D02*
X84400Y208100D01*
X84400Y209050D02*
X93400Y209050D01*
X93400Y210000D02*
X84400Y210000D01*
X84400Y210950D02*
X93400Y210950D01*
X93400Y211900D02*
X84400Y211900D01*
X99530Y180920D02*
X109530Y180920D01*
X99530Y180920D02*
X99530Y189920D01*
X109530Y189920D01*
X109530Y180920D01*
X109530Y181870D02*
X99530Y181870D01*
X99530Y182820D02*
X109530Y182820D01*
X109530Y183770D02*
X99530Y183770D01*
X99530Y184720D02*
X109530Y184720D01*
X109530Y185670D02*
X99530Y185670D01*
X99530Y186620D02*
X109530Y186620D01*
X109530Y187570D02*
X99530Y187570D01*
X99530Y188520D02*
X109530Y188520D01*
X109530Y189470D02*
X99530Y189470D01*
X116530Y180920D02*
X126530Y180920D01*
X116530Y180920D02*
X116530Y189920D01*
X126530Y189920D01*
X126530Y180920D01*
X126530Y181870D02*
X116530Y181870D01*
X116530Y182820D02*
X126530Y182820D01*
X126530Y183770D02*
X116530Y183770D01*
X116530Y184720D02*
X126530Y184720D01*
X126530Y185670D02*
X116530Y185670D01*
X116530Y186620D02*
X126530Y186620D01*
X126530Y187570D02*
X116530Y187570D01*
X116530Y188520D02*
X126530Y188520D01*
X126530Y189470D02*
X116530Y189470D01*
X163250Y286220D02*
X163250Y296220D01*
X163250Y286220D02*
X154250Y286220D01*
X154250Y296220D01*
X163250Y296220D01*
X163250Y287170D02*
X154250Y287170D01*
X154250Y288120D02*
X163250Y288120D01*
X163250Y289070D02*
X154250Y289070D01*
X154250Y290020D02*
X163250Y290020D01*
X163250Y290970D02*
X154250Y290970D01*
X154250Y291920D02*
X163250Y291920D01*
X163250Y292870D02*
X154250Y292870D01*
X154250Y293820D02*
X163250Y293820D01*
X163250Y294770D02*
X154250Y294770D01*
X154250Y295720D02*
X163250Y295720D01*
X163250Y303220D02*
X163250Y313220D01*
X163250Y303220D02*
X154250Y303220D01*
X154250Y313220D01*
X163250Y313220D01*
X163250Y304170D02*
X154250Y304170D01*
X154250Y305120D02*
X163250Y305120D01*
X163250Y306070D02*
X154250Y306070D01*
X154250Y307020D02*
X163250Y307020D01*
X163250Y307970D02*
X154250Y307970D01*
X154250Y308920D02*
X163250Y308920D01*
X163250Y309870D02*
X154250Y309870D01*
X154250Y310820D02*
X163250Y310820D01*
X163250Y311770D02*
X154250Y311770D01*
X154250Y312720D02*
X163250Y312720D01*
M02*
