G04 EAGLE Gerber RS-274X export*
G75*
%MOMM*%
%FSLAX34Y34*%
%LPD*%
%INSoldermask Top*%
%IPPOS*%
%AMOC8*
5,1,8,0,0,1.08239X$1,22.5*%
G01*
%ADD10C,0.253344*%
%ADD11C,0.255816*%
%ADD12C,0.802400*%
%ADD13C,0.251966*%
%ADD14C,0.243431*%
%ADD15C,0.449434*%
%ADD16C,2.032000*%
%ADD17C,0.246888*%
%ADD18C,0.253525*%
%ADD19C,1.152400*%
%ADD20C,3.454400*%
%ADD21C,0.253550*%

G36*
X84934Y442168D02*
X84934Y442168D01*
X84939Y442173D01*
X84943Y442169D01*
X86040Y442456D01*
X86044Y442462D01*
X86049Y442459D01*
X87068Y442954D01*
X87071Y442960D01*
X87076Y442959D01*
X87979Y443643D01*
X87981Y443650D01*
X87986Y443650D01*
X88739Y444497D01*
X88739Y444504D01*
X88744Y444505D01*
X89317Y445482D01*
X89316Y445485D01*
X89317Y445486D01*
X89316Y445487D01*
X89316Y445489D01*
X89321Y445491D01*
X89692Y446562D01*
X89690Y446567D01*
X89693Y446569D01*
X89692Y446570D01*
X89694Y446571D01*
X89849Y447693D01*
X89846Y447698D01*
X89849Y447700D01*
X89849Y459700D01*
X89846Y459705D01*
X89849Y459708D01*
X89644Y460975D01*
X89638Y460981D01*
X89641Y460986D01*
X89159Y462175D01*
X89152Y462179D01*
X89154Y462185D01*
X88420Y463238D01*
X88412Y463240D01*
X88413Y463246D01*
X87463Y464109D01*
X87454Y464110D01*
X87454Y464115D01*
X86335Y464745D01*
X86327Y464744D01*
X86325Y464750D01*
X85095Y465115D01*
X85087Y465112D01*
X85084Y465117D01*
X83803Y465199D01*
X83797Y465199D01*
X82516Y465117D01*
X82510Y465111D01*
X82505Y465115D01*
X81275Y464750D01*
X81270Y464743D01*
X81265Y464745D01*
X80146Y464115D01*
X80143Y464108D01*
X80137Y464109D01*
X79187Y463246D01*
X79186Y463238D01*
X79180Y463238D01*
X78446Y462185D01*
X78446Y462177D01*
X78441Y462175D01*
X77959Y460986D01*
X77961Y460980D01*
X77957Y460977D01*
X77958Y460976D01*
X77956Y460975D01*
X77751Y459708D01*
X77754Y459703D01*
X77751Y459700D01*
X77751Y447700D01*
X77754Y447696D01*
X77751Y447693D01*
X77906Y446571D01*
X77911Y446566D01*
X77908Y446562D01*
X78279Y445491D01*
X78285Y445487D01*
X78283Y445482D01*
X78856Y444505D01*
X78862Y444502D01*
X78861Y444497D01*
X79614Y443650D01*
X79621Y443648D01*
X79621Y443643D01*
X80524Y442959D01*
X80531Y442959D01*
X80532Y442954D01*
X81551Y442459D01*
X81558Y442461D01*
X81560Y442456D01*
X82657Y442169D01*
X82663Y442172D01*
X82666Y442168D01*
X83797Y442101D01*
X83801Y442103D01*
X83803Y442101D01*
X84934Y442168D01*
G37*
G36*
X171334Y442168D02*
X171334Y442168D01*
X171339Y442173D01*
X171343Y442169D01*
X172440Y442456D01*
X172444Y442462D01*
X172449Y442459D01*
X173468Y442954D01*
X173471Y442960D01*
X173476Y442959D01*
X174379Y443643D01*
X174381Y443650D01*
X174386Y443650D01*
X175139Y444497D01*
X175139Y444504D01*
X175144Y444505D01*
X175717Y445482D01*
X175716Y445485D01*
X175717Y445486D01*
X175716Y445487D01*
X175716Y445489D01*
X175721Y445491D01*
X176092Y446562D01*
X176090Y446567D01*
X176093Y446569D01*
X176092Y446570D01*
X176094Y446571D01*
X176249Y447693D01*
X176246Y447698D01*
X176249Y447700D01*
X176249Y459700D01*
X176246Y459705D01*
X176249Y459708D01*
X176044Y460975D01*
X176038Y460981D01*
X176041Y460986D01*
X175559Y462175D01*
X175552Y462179D01*
X175554Y462185D01*
X174820Y463238D01*
X174812Y463240D01*
X174813Y463246D01*
X173863Y464109D01*
X173854Y464110D01*
X173854Y464115D01*
X172735Y464745D01*
X172727Y464744D01*
X172725Y464750D01*
X171495Y465115D01*
X171487Y465112D01*
X171484Y465117D01*
X170203Y465199D01*
X170197Y465199D01*
X168916Y465117D01*
X168910Y465111D01*
X168905Y465115D01*
X167675Y464750D01*
X167670Y464743D01*
X167665Y464745D01*
X166546Y464115D01*
X166543Y464108D01*
X166537Y464109D01*
X165587Y463246D01*
X165586Y463238D01*
X165580Y463238D01*
X164846Y462185D01*
X164846Y462177D01*
X164841Y462175D01*
X164359Y460986D01*
X164361Y460980D01*
X164357Y460977D01*
X164358Y460976D01*
X164356Y460975D01*
X164151Y459708D01*
X164154Y459703D01*
X164151Y459700D01*
X164151Y447700D01*
X164154Y447696D01*
X164151Y447693D01*
X164306Y446571D01*
X164311Y446566D01*
X164308Y446562D01*
X164679Y445491D01*
X164685Y445487D01*
X164683Y445482D01*
X165256Y444505D01*
X165262Y444502D01*
X165261Y444497D01*
X166014Y443650D01*
X166021Y443648D01*
X166021Y443643D01*
X166924Y442959D01*
X166931Y442959D01*
X166932Y442954D01*
X167951Y442459D01*
X167958Y442461D01*
X167960Y442456D01*
X169057Y442169D01*
X169063Y442172D01*
X169066Y442168D01*
X170197Y442101D01*
X170201Y442103D01*
X170203Y442101D01*
X171334Y442168D01*
G37*
G36*
X170202Y486405D02*
X170202Y486405D01*
X170206Y486401D01*
X171546Y486558D01*
X171552Y486563D01*
X171557Y486560D01*
X172828Y487011D01*
X172833Y487018D01*
X172838Y487016D01*
X173977Y487738D01*
X173980Y487746D01*
X173986Y487745D01*
X174936Y488703D01*
X174937Y488711D01*
X174943Y488712D01*
X175656Y489857D01*
X175655Y489866D01*
X175661Y489867D01*
X176101Y491143D01*
X176099Y491150D01*
X176103Y491153D01*
X176249Y492495D01*
X176247Y492498D01*
X176249Y492500D01*
X176249Y498500D01*
X176247Y498504D01*
X176249Y498506D01*
X176094Y499835D01*
X176088Y499841D01*
X176091Y499845D01*
X175644Y501106D01*
X175637Y501111D01*
X175639Y501116D01*
X174922Y502246D01*
X174915Y502249D01*
X174916Y502255D01*
X173966Y503197D01*
X173957Y503198D01*
X173957Y503204D01*
X172821Y503911D01*
X172813Y503910D01*
X172811Y503916D01*
X171546Y504352D01*
X171538Y504350D01*
X171536Y504355D01*
X170205Y504499D01*
X170199Y504495D01*
X170195Y504499D01*
X169029Y504389D01*
X169024Y504384D01*
X169020Y504387D01*
X167897Y504052D01*
X167893Y504046D01*
X167889Y504048D01*
X166853Y503500D01*
X166850Y503494D01*
X166845Y503495D01*
X165937Y502756D01*
X165935Y502749D01*
X165930Y502749D01*
X165183Y501847D01*
X165183Y501840D01*
X165178Y501839D01*
X164621Y500808D01*
X164622Y500801D01*
X164617Y500799D01*
X164273Y499680D01*
X164275Y499673D01*
X164271Y499670D01*
X164151Y498505D01*
X164153Y498502D01*
X164151Y498500D01*
X164151Y492500D01*
X164153Y492497D01*
X164151Y492495D01*
X164262Y491319D01*
X164267Y491314D01*
X164264Y491310D01*
X164602Y490178D01*
X164608Y490174D01*
X164606Y490169D01*
X165158Y489125D01*
X165165Y489122D01*
X165163Y489117D01*
X165909Y488201D01*
X165916Y488200D01*
X165916Y488194D01*
X166826Y487441D01*
X166833Y487441D01*
X166834Y487436D01*
X167873Y486875D01*
X167880Y486876D01*
X167882Y486871D01*
X169011Y486524D01*
X169017Y486526D01*
X169020Y486522D01*
X170195Y486401D01*
X170202Y486405D01*
G37*
G36*
X83802Y486405D02*
X83802Y486405D01*
X83806Y486401D01*
X85146Y486558D01*
X85152Y486563D01*
X85157Y486560D01*
X86428Y487011D01*
X86433Y487018D01*
X86438Y487016D01*
X87577Y487738D01*
X87580Y487746D01*
X87586Y487745D01*
X88536Y488703D01*
X88537Y488711D01*
X88543Y488712D01*
X89256Y489857D01*
X89255Y489866D01*
X89261Y489867D01*
X89701Y491143D01*
X89699Y491150D01*
X89703Y491153D01*
X89849Y492495D01*
X89847Y492498D01*
X89849Y492500D01*
X89849Y498500D01*
X89847Y498504D01*
X89849Y498506D01*
X89694Y499835D01*
X89688Y499841D01*
X89691Y499845D01*
X89244Y501106D01*
X89237Y501111D01*
X89239Y501116D01*
X88522Y502246D01*
X88515Y502249D01*
X88516Y502255D01*
X87566Y503197D01*
X87557Y503198D01*
X87557Y503204D01*
X86421Y503911D01*
X86413Y503910D01*
X86411Y503916D01*
X85146Y504352D01*
X85138Y504350D01*
X85136Y504355D01*
X83805Y504499D01*
X83799Y504495D01*
X83795Y504499D01*
X82629Y504389D01*
X82624Y504384D01*
X82620Y504387D01*
X81497Y504052D01*
X81493Y504046D01*
X81489Y504048D01*
X80453Y503500D01*
X80450Y503494D01*
X80445Y503495D01*
X79537Y502756D01*
X79535Y502749D01*
X79530Y502749D01*
X78783Y501847D01*
X78783Y501840D01*
X78778Y501839D01*
X78221Y500808D01*
X78222Y500801D01*
X78217Y500799D01*
X77873Y499680D01*
X77875Y499673D01*
X77871Y499670D01*
X77751Y498505D01*
X77753Y498502D01*
X77751Y498500D01*
X77751Y492500D01*
X77753Y492497D01*
X77751Y492495D01*
X77862Y491319D01*
X77867Y491314D01*
X77864Y491310D01*
X78202Y490178D01*
X78208Y490174D01*
X78206Y490169D01*
X78758Y489125D01*
X78765Y489122D01*
X78763Y489117D01*
X79509Y488201D01*
X79516Y488200D01*
X79516Y488194D01*
X80426Y487441D01*
X80433Y487441D01*
X80434Y487436D01*
X81473Y486875D01*
X81480Y486876D01*
X81482Y486871D01*
X82611Y486524D01*
X82617Y486526D01*
X82620Y486522D01*
X83795Y486401D01*
X83802Y486405D01*
G37*
G36*
X213425Y434352D02*
X213425Y434352D01*
X213491Y434354D01*
X213534Y434372D01*
X213581Y434380D01*
X213638Y434414D01*
X213698Y434439D01*
X213733Y434470D01*
X213774Y434495D01*
X213816Y434546D01*
X213864Y434590D01*
X213886Y434632D01*
X213915Y434669D01*
X213936Y434731D01*
X213967Y434790D01*
X213975Y434844D01*
X213987Y434881D01*
X213986Y434921D01*
X213994Y434975D01*
X213994Y438785D01*
X213983Y438850D01*
X213981Y438916D01*
X213963Y438959D01*
X213955Y439006D01*
X213921Y439063D01*
X213896Y439123D01*
X213865Y439158D01*
X213840Y439199D01*
X213789Y439241D01*
X213745Y439289D01*
X213703Y439311D01*
X213666Y439340D01*
X213604Y439361D01*
X213545Y439392D01*
X213491Y439400D01*
X213454Y439412D01*
X213414Y439411D01*
X213360Y439419D01*
X210820Y439419D01*
X210755Y439408D01*
X210689Y439406D01*
X210646Y439388D01*
X210599Y439380D01*
X210542Y439346D01*
X210482Y439321D01*
X210447Y439290D01*
X210406Y439265D01*
X210365Y439214D01*
X210316Y439170D01*
X210294Y439128D01*
X210265Y439091D01*
X210244Y439029D01*
X210213Y438970D01*
X210205Y438916D01*
X210193Y438879D01*
X210193Y438875D01*
X210193Y438874D01*
X210194Y438839D01*
X210186Y438785D01*
X210186Y434975D01*
X210197Y434910D01*
X210199Y434844D01*
X210217Y434801D01*
X210225Y434754D01*
X210259Y434697D01*
X210284Y434637D01*
X210315Y434602D01*
X210340Y434561D01*
X210391Y434520D01*
X210435Y434471D01*
X210477Y434449D01*
X210514Y434420D01*
X210576Y434399D01*
X210635Y434368D01*
X210689Y434360D01*
X210726Y434348D01*
X210766Y434349D01*
X210820Y434341D01*
X213360Y434341D01*
X213425Y434352D01*
G37*
G36*
X213425Y424192D02*
X213425Y424192D01*
X213491Y424194D01*
X213534Y424212D01*
X213581Y424220D01*
X213638Y424254D01*
X213698Y424279D01*
X213733Y424310D01*
X213774Y424335D01*
X213816Y424386D01*
X213864Y424430D01*
X213886Y424472D01*
X213915Y424509D01*
X213936Y424571D01*
X213967Y424630D01*
X213975Y424684D01*
X213987Y424721D01*
X213986Y424761D01*
X213994Y424815D01*
X213994Y428625D01*
X213983Y428690D01*
X213981Y428756D01*
X213963Y428799D01*
X213955Y428846D01*
X213921Y428903D01*
X213896Y428963D01*
X213865Y428998D01*
X213840Y429039D01*
X213789Y429081D01*
X213745Y429129D01*
X213703Y429151D01*
X213666Y429180D01*
X213604Y429201D01*
X213545Y429232D01*
X213491Y429240D01*
X213454Y429252D01*
X213414Y429251D01*
X213360Y429259D01*
X210820Y429259D01*
X210755Y429248D01*
X210689Y429246D01*
X210646Y429228D01*
X210599Y429220D01*
X210542Y429186D01*
X210482Y429161D01*
X210447Y429130D01*
X210406Y429105D01*
X210365Y429054D01*
X210316Y429010D01*
X210294Y428968D01*
X210265Y428931D01*
X210244Y428869D01*
X210213Y428810D01*
X210205Y428756D01*
X210193Y428719D01*
X210193Y428715D01*
X210193Y428714D01*
X210194Y428679D01*
X210186Y428625D01*
X210186Y424815D01*
X210197Y424750D01*
X210199Y424684D01*
X210217Y424641D01*
X210225Y424594D01*
X210259Y424537D01*
X210284Y424477D01*
X210315Y424442D01*
X210340Y424401D01*
X210391Y424360D01*
X210435Y424311D01*
X210477Y424289D01*
X210514Y424260D01*
X210576Y424239D01*
X210635Y424208D01*
X210689Y424200D01*
X210726Y424188D01*
X210766Y424189D01*
X210820Y424181D01*
X213360Y424181D01*
X213425Y424192D01*
G37*
G36*
X65470Y468007D02*
X65470Y468007D01*
X65536Y468009D01*
X65579Y468027D01*
X65626Y468035D01*
X65683Y468069D01*
X65743Y468094D01*
X65778Y468125D01*
X65819Y468150D01*
X65861Y468201D01*
X65909Y468245D01*
X65931Y468287D01*
X65960Y468324D01*
X65981Y468386D01*
X66012Y468445D01*
X66020Y468499D01*
X66032Y468536D01*
X66031Y468576D01*
X66039Y468630D01*
X66039Y471170D01*
X66028Y471235D01*
X66026Y471301D01*
X66008Y471344D01*
X66000Y471391D01*
X65966Y471448D01*
X65941Y471508D01*
X65910Y471543D01*
X65885Y471584D01*
X65834Y471626D01*
X65790Y471674D01*
X65748Y471696D01*
X65711Y471725D01*
X65649Y471746D01*
X65590Y471777D01*
X65536Y471785D01*
X65499Y471797D01*
X65459Y471796D01*
X65405Y471804D01*
X61595Y471804D01*
X61530Y471793D01*
X61464Y471791D01*
X61421Y471773D01*
X61374Y471765D01*
X61317Y471731D01*
X61257Y471706D01*
X61222Y471675D01*
X61181Y471650D01*
X61140Y471599D01*
X61091Y471555D01*
X61069Y471513D01*
X61040Y471476D01*
X61019Y471414D01*
X60988Y471355D01*
X60980Y471301D01*
X60968Y471264D01*
X60968Y471261D01*
X60969Y471224D01*
X60961Y471170D01*
X60961Y468630D01*
X60972Y468565D01*
X60974Y468499D01*
X60992Y468456D01*
X61000Y468409D01*
X61034Y468352D01*
X61059Y468292D01*
X61090Y468257D01*
X61115Y468216D01*
X61166Y468175D01*
X61210Y468126D01*
X61252Y468104D01*
X61289Y468075D01*
X61351Y468054D01*
X61410Y468023D01*
X61464Y468015D01*
X61501Y468003D01*
X61541Y468004D01*
X61595Y467996D01*
X65405Y467996D01*
X65470Y468007D01*
G37*
G36*
X65470Y328307D02*
X65470Y328307D01*
X65536Y328309D01*
X65579Y328327D01*
X65626Y328335D01*
X65683Y328369D01*
X65743Y328394D01*
X65778Y328425D01*
X65819Y328450D01*
X65861Y328501D01*
X65909Y328545D01*
X65931Y328587D01*
X65960Y328624D01*
X65981Y328686D01*
X66012Y328745D01*
X66020Y328799D01*
X66032Y328836D01*
X66031Y328876D01*
X66039Y328930D01*
X66039Y331470D01*
X66028Y331535D01*
X66026Y331601D01*
X66008Y331644D01*
X66000Y331691D01*
X65966Y331748D01*
X65941Y331808D01*
X65910Y331843D01*
X65885Y331884D01*
X65834Y331926D01*
X65790Y331974D01*
X65748Y331996D01*
X65711Y332025D01*
X65649Y332046D01*
X65590Y332077D01*
X65536Y332085D01*
X65499Y332097D01*
X65459Y332096D01*
X65405Y332104D01*
X61595Y332104D01*
X61530Y332093D01*
X61464Y332091D01*
X61421Y332073D01*
X61374Y332065D01*
X61317Y332031D01*
X61257Y332006D01*
X61222Y331975D01*
X61181Y331950D01*
X61140Y331899D01*
X61091Y331855D01*
X61069Y331813D01*
X61040Y331776D01*
X61019Y331714D01*
X60988Y331655D01*
X60980Y331601D01*
X60968Y331564D01*
X60968Y331561D01*
X60969Y331524D01*
X60961Y331470D01*
X60961Y328930D01*
X60972Y328865D01*
X60974Y328799D01*
X60992Y328756D01*
X61000Y328709D01*
X61034Y328652D01*
X61059Y328592D01*
X61090Y328557D01*
X61115Y328516D01*
X61166Y328475D01*
X61210Y328426D01*
X61252Y328404D01*
X61289Y328375D01*
X61351Y328354D01*
X61410Y328323D01*
X61464Y328315D01*
X61501Y328303D01*
X61541Y328304D01*
X61595Y328296D01*
X65405Y328296D01*
X65470Y328307D01*
G37*
D10*
X118504Y452396D02*
X120496Y452396D01*
X120496Y443404D01*
X118504Y443404D01*
X118504Y452396D01*
X118504Y445810D02*
X120496Y445810D01*
X120496Y448216D02*
X118504Y448216D01*
X118504Y450622D02*
X120496Y450622D01*
X123504Y452396D02*
X125496Y452396D01*
X125496Y443404D01*
X123504Y443404D01*
X123504Y452396D01*
X123504Y445810D02*
X125496Y445810D01*
X125496Y448216D02*
X123504Y448216D01*
X123504Y450622D02*
X125496Y450622D01*
D11*
X97233Y452383D02*
X92267Y452383D01*
X97233Y452383D02*
X97233Y443417D01*
X92267Y443417D01*
X92267Y452383D01*
X92267Y445847D02*
X97233Y445847D01*
X97233Y448277D02*
X92267Y448277D01*
X92267Y450707D02*
X97233Y450707D01*
X100017Y452383D02*
X104983Y452383D01*
X104983Y443417D01*
X100017Y443417D01*
X100017Y452383D01*
X100017Y445847D02*
X104983Y445847D01*
X104983Y448277D02*
X100017Y448277D01*
X100017Y450707D02*
X104983Y450707D01*
D10*
X108504Y452396D02*
X110496Y452396D01*
X110496Y443404D01*
X108504Y443404D01*
X108504Y452396D01*
X108504Y445810D02*
X110496Y445810D01*
X110496Y448216D02*
X108504Y448216D01*
X108504Y450622D02*
X110496Y450622D01*
X113504Y452396D02*
X115496Y452396D01*
X115496Y443404D01*
X113504Y443404D01*
X113504Y452396D01*
X113504Y445810D02*
X115496Y445810D01*
X115496Y448216D02*
X113504Y448216D01*
X113504Y450622D02*
X115496Y450622D01*
X133504Y443404D02*
X135496Y443404D01*
X133504Y443404D02*
X133504Y452396D01*
X135496Y452396D01*
X135496Y443404D01*
X135496Y445810D02*
X133504Y445810D01*
X133504Y448216D02*
X135496Y448216D01*
X135496Y450622D02*
X133504Y450622D01*
X130496Y443404D02*
X128504Y443404D01*
X128504Y452396D01*
X130496Y452396D01*
X130496Y443404D01*
X130496Y445810D02*
X128504Y445810D01*
X128504Y448216D02*
X130496Y448216D01*
X130496Y450622D02*
X128504Y450622D01*
D11*
X156767Y443417D02*
X161733Y443417D01*
X156767Y443417D02*
X156767Y452383D01*
X161733Y452383D01*
X161733Y443417D01*
X161733Y445847D02*
X156767Y445847D01*
X156767Y448277D02*
X161733Y448277D01*
X161733Y450707D02*
X156767Y450707D01*
X153983Y443417D02*
X149017Y443417D01*
X149017Y452383D01*
X153983Y452383D01*
X153983Y443417D01*
X153983Y445847D02*
X149017Y445847D01*
X149017Y448277D02*
X153983Y448277D01*
X153983Y450707D02*
X149017Y450707D01*
D10*
X145496Y443404D02*
X143504Y443404D01*
X143504Y452396D01*
X145496Y452396D01*
X145496Y443404D01*
X145496Y445810D02*
X143504Y445810D01*
X143504Y448216D02*
X145496Y448216D01*
X145496Y450622D02*
X143504Y450622D01*
X140496Y443404D02*
X138504Y443404D01*
X138504Y452396D01*
X140496Y452396D01*
X140496Y443404D01*
X140496Y445810D02*
X138504Y445810D01*
X138504Y448216D02*
X140496Y448216D01*
X140496Y450622D02*
X138504Y450622D01*
D12*
X155900Y458950D03*
X98100Y458950D03*
D13*
X61097Y464048D02*
X55489Y464048D01*
X55489Y475752D01*
X61097Y475752D01*
X61097Y464048D01*
X61097Y466442D02*
X55489Y466442D01*
X55489Y468836D02*
X61097Y468836D01*
X61097Y471230D02*
X55489Y471230D01*
X55489Y473624D02*
X61097Y473624D01*
X65903Y464048D02*
X71511Y464048D01*
X65903Y464048D02*
X65903Y475752D01*
X71511Y475752D01*
X71511Y464048D01*
X71511Y466442D02*
X65903Y466442D01*
X65903Y468836D02*
X71511Y468836D01*
X71511Y471230D02*
X65903Y471230D01*
X65903Y473624D02*
X71511Y473624D01*
D14*
X4505Y414545D02*
X4505Y403455D01*
X4505Y414545D02*
X23595Y414545D01*
X23595Y403455D01*
X4505Y403455D01*
X4505Y405767D02*
X23595Y405767D01*
X23595Y408079D02*
X4505Y408079D01*
X4505Y410391D02*
X23595Y410391D01*
X23595Y412703D02*
X4505Y412703D01*
X4505Y358545D02*
X4505Y347455D01*
X4505Y358545D02*
X23595Y358545D01*
X23595Y347455D01*
X4505Y347455D01*
X4505Y349767D02*
X23595Y349767D01*
X23595Y352079D02*
X4505Y352079D01*
X4505Y354391D02*
X23595Y354391D01*
X23595Y356703D02*
X4505Y356703D01*
D11*
X44567Y393517D02*
X44567Y398483D01*
X57033Y398483D01*
X57033Y393517D01*
X44567Y393517D01*
X44567Y395947D02*
X57033Y395947D01*
X57033Y398377D02*
X44567Y398377D01*
X44567Y388483D02*
X44567Y383517D01*
X44567Y388483D02*
X57033Y388483D01*
X57033Y383517D01*
X44567Y383517D01*
X44567Y385947D02*
X57033Y385947D01*
X57033Y388377D02*
X44567Y388377D01*
X44567Y378483D02*
X44567Y373517D01*
X44567Y378483D02*
X57033Y378483D01*
X57033Y373517D01*
X44567Y373517D01*
X44567Y375947D02*
X57033Y375947D01*
X57033Y378377D02*
X44567Y378377D01*
X44567Y368483D02*
X44567Y363517D01*
X44567Y368483D02*
X57033Y368483D01*
X57033Y363517D01*
X44567Y363517D01*
X44567Y365947D02*
X57033Y365947D01*
X57033Y368377D02*
X44567Y368377D01*
D15*
X20145Y327365D02*
X20145Y320335D01*
X13115Y320335D01*
X13115Y327365D01*
X20145Y327365D01*
X20145Y324604D02*
X13115Y324604D01*
X37685Y327365D02*
X37685Y320335D01*
X30655Y320335D01*
X30655Y327365D01*
X37685Y327365D01*
X37685Y324604D02*
X30655Y324604D01*
D13*
X217942Y418582D02*
X217942Y424190D01*
X217942Y418582D02*
X206238Y418582D01*
X206238Y424190D01*
X217942Y424190D01*
X217942Y420976D02*
X206238Y420976D01*
X206238Y423370D02*
X217942Y423370D01*
X217942Y428996D02*
X217942Y434604D01*
X217942Y428996D02*
X206238Y428996D01*
X206238Y434604D01*
X217942Y434604D01*
X217942Y431390D02*
X206238Y431390D01*
X206238Y433784D02*
X217942Y433784D01*
X217942Y439410D02*
X217942Y445018D01*
X217942Y439410D02*
X206238Y439410D01*
X206238Y445018D01*
X217942Y445018D01*
X217942Y441804D02*
X206238Y441804D01*
X206238Y444198D02*
X217942Y444198D01*
X61097Y324348D02*
X55489Y324348D01*
X55489Y336052D01*
X61097Y336052D01*
X61097Y324348D01*
X61097Y326742D02*
X55489Y326742D01*
X55489Y329136D02*
X61097Y329136D01*
X61097Y331530D02*
X55489Y331530D01*
X55489Y333924D02*
X61097Y333924D01*
X65903Y324348D02*
X71511Y324348D01*
X65903Y324348D02*
X65903Y336052D01*
X71511Y336052D01*
X71511Y324348D01*
X71511Y326742D02*
X65903Y326742D01*
X65903Y329136D02*
X71511Y329136D01*
X71511Y331530D02*
X65903Y331530D01*
X65903Y333924D02*
X71511Y333924D01*
D14*
X249495Y347455D02*
X249495Y358545D01*
X249495Y347455D02*
X230405Y347455D01*
X230405Y358545D01*
X249495Y358545D01*
X249495Y349767D02*
X230405Y349767D01*
X230405Y352079D02*
X249495Y352079D01*
X249495Y354391D02*
X230405Y354391D01*
X230405Y356703D02*
X249495Y356703D01*
X249495Y403455D02*
X249495Y414545D01*
X249495Y403455D02*
X230405Y403455D01*
X230405Y414545D01*
X249495Y414545D01*
X249495Y405767D02*
X230405Y405767D01*
X230405Y408079D02*
X249495Y408079D01*
X249495Y410391D02*
X230405Y410391D01*
X230405Y412703D02*
X249495Y412703D01*
D11*
X209433Y368483D02*
X209433Y363517D01*
X196967Y363517D01*
X196967Y368483D01*
X209433Y368483D01*
X209433Y365947D02*
X196967Y365947D01*
X196967Y368377D02*
X209433Y368377D01*
X209433Y373517D02*
X209433Y378483D01*
X209433Y373517D02*
X196967Y373517D01*
X196967Y378483D01*
X209433Y378483D01*
X209433Y375947D02*
X196967Y375947D01*
X196967Y378377D02*
X209433Y378377D01*
X209433Y383517D02*
X209433Y388483D01*
X209433Y383517D02*
X196967Y383517D01*
X196967Y388483D01*
X209433Y388483D01*
X209433Y385947D02*
X196967Y385947D01*
X196967Y388377D02*
X209433Y388377D01*
X209433Y393517D02*
X209433Y398483D01*
X209433Y393517D02*
X196967Y393517D01*
X196967Y398483D01*
X209433Y398483D01*
X209433Y395947D02*
X196967Y395947D01*
X196967Y398377D02*
X209433Y398377D01*
D16*
X241300Y228600D03*
X241300Y254000D03*
X12700Y127000D03*
X12700Y101600D03*
D17*
X68108Y54138D02*
X68108Y47462D01*
X53812Y47462D01*
X53812Y54138D01*
X68108Y54138D01*
X68108Y49808D02*
X53812Y49808D01*
X53812Y52154D02*
X68108Y52154D01*
X123988Y54138D02*
X123988Y47462D01*
X109692Y47462D01*
X109692Y54138D01*
X123988Y54138D01*
X123988Y49808D02*
X109692Y49808D01*
X109692Y52154D02*
X123988Y52154D01*
X68108Y16038D02*
X68108Y9362D01*
X53812Y9362D01*
X53812Y16038D01*
X68108Y16038D01*
X68108Y11708D02*
X53812Y11708D01*
X53812Y14054D02*
X68108Y14054D01*
X123988Y16038D02*
X123988Y9362D01*
X109692Y9362D01*
X109692Y16038D01*
X123988Y16038D01*
X123988Y11708D02*
X109692Y11708D01*
X109692Y14054D02*
X123988Y14054D01*
X144308Y47462D02*
X144308Y54138D01*
X144308Y47462D02*
X130012Y47462D01*
X130012Y54138D01*
X144308Y54138D01*
X144308Y49808D02*
X130012Y49808D01*
X130012Y52154D02*
X144308Y52154D01*
X200188Y54138D02*
X200188Y47462D01*
X185892Y47462D01*
X185892Y54138D01*
X200188Y54138D01*
X200188Y49808D02*
X185892Y49808D01*
X185892Y52154D02*
X200188Y52154D01*
X144308Y16038D02*
X144308Y9362D01*
X130012Y9362D01*
X130012Y16038D01*
X144308Y16038D01*
X144308Y11708D02*
X130012Y11708D01*
X130012Y14054D02*
X144308Y14054D01*
X200188Y16038D02*
X200188Y9362D01*
X185892Y9362D01*
X185892Y16038D01*
X200188Y16038D01*
X200188Y11708D02*
X185892Y11708D01*
X185892Y14054D02*
X200188Y14054D01*
D16*
X12700Y76200D03*
D18*
X28905Y309295D02*
X38895Y309295D01*
X38895Y300305D01*
X28905Y300305D01*
X28905Y309295D01*
X28905Y302713D02*
X38895Y302713D01*
X38895Y305121D02*
X28905Y305121D01*
X28905Y307529D02*
X38895Y307529D01*
X21895Y309295D02*
X11905Y309295D01*
X21895Y309295D02*
X21895Y300305D01*
X11905Y300305D01*
X11905Y309295D01*
X11905Y302713D02*
X21895Y302713D01*
X21895Y305121D02*
X11905Y305121D01*
X11905Y307529D02*
X21895Y307529D01*
D16*
X12700Y152400D03*
X12700Y177800D03*
X12700Y203200D03*
X12700Y228600D03*
X12700Y254000D03*
D19*
X12700Y457200D03*
X241300Y50800D03*
D20*
X25400Y25400D03*
X228600Y25400D03*
X25400Y482600D03*
X228600Y482600D03*
D16*
X241300Y177800D03*
X241300Y152400D03*
X241300Y127000D03*
X241300Y101600D03*
D21*
X66390Y256106D02*
X43402Y256106D01*
X43402Y264594D01*
X66390Y264594D01*
X66390Y256106D01*
X66390Y258515D02*
X43402Y258515D01*
X43402Y260924D02*
X66390Y260924D01*
X66390Y263333D02*
X43402Y263333D01*
X43402Y243406D02*
X66390Y243406D01*
X43402Y243406D02*
X43402Y251894D01*
X66390Y251894D01*
X66390Y243406D01*
X66390Y245815D02*
X43402Y245815D01*
X43402Y248224D02*
X66390Y248224D01*
X66390Y250633D02*
X43402Y250633D01*
X43402Y230706D02*
X66390Y230706D01*
X43402Y230706D02*
X43402Y239194D01*
X66390Y239194D01*
X66390Y230706D01*
X66390Y233115D02*
X43402Y233115D01*
X43402Y235524D02*
X66390Y235524D01*
X66390Y237933D02*
X43402Y237933D01*
X43402Y218006D02*
X66390Y218006D01*
X43402Y218006D02*
X43402Y226494D01*
X66390Y226494D01*
X66390Y218006D01*
X66390Y220415D02*
X43402Y220415D01*
X43402Y222824D02*
X66390Y222824D01*
X66390Y225233D02*
X43402Y225233D01*
X43402Y205306D02*
X66390Y205306D01*
X43402Y205306D02*
X43402Y213794D01*
X66390Y213794D01*
X66390Y205306D01*
X66390Y207715D02*
X43402Y207715D01*
X43402Y210124D02*
X66390Y210124D01*
X66390Y212533D02*
X43402Y212533D01*
X43402Y192606D02*
X66390Y192606D01*
X43402Y192606D02*
X43402Y201094D01*
X66390Y201094D01*
X66390Y192606D01*
X66390Y195015D02*
X43402Y195015D01*
X43402Y197424D02*
X66390Y197424D01*
X66390Y199833D02*
X43402Y199833D01*
X43402Y179906D02*
X66390Y179906D01*
X43402Y179906D02*
X43402Y188394D01*
X66390Y188394D01*
X66390Y179906D01*
X66390Y182315D02*
X43402Y182315D01*
X43402Y184724D02*
X66390Y184724D01*
X66390Y187133D02*
X43402Y187133D01*
X43402Y167206D02*
X66390Y167206D01*
X43402Y167206D02*
X43402Y175694D01*
X66390Y175694D01*
X66390Y167206D01*
X66390Y169615D02*
X43402Y169615D01*
X43402Y172024D02*
X66390Y172024D01*
X66390Y174433D02*
X43402Y174433D01*
X43402Y154506D02*
X66390Y154506D01*
X43402Y154506D02*
X43402Y162994D01*
X66390Y162994D01*
X66390Y154506D01*
X66390Y156915D02*
X43402Y156915D01*
X43402Y159324D02*
X66390Y159324D01*
X66390Y161733D02*
X43402Y161733D01*
X43402Y141806D02*
X66390Y141806D01*
X43402Y141806D02*
X43402Y150294D01*
X66390Y150294D01*
X66390Y141806D01*
X66390Y144215D02*
X43402Y144215D01*
X43402Y146624D02*
X66390Y146624D01*
X66390Y149033D02*
X43402Y149033D01*
X43402Y129106D02*
X66390Y129106D01*
X43402Y129106D02*
X43402Y137594D01*
X66390Y137594D01*
X66390Y129106D01*
X66390Y131515D02*
X43402Y131515D01*
X43402Y133924D02*
X66390Y133924D01*
X66390Y136333D02*
X43402Y136333D01*
X43402Y116406D02*
X66390Y116406D01*
X43402Y116406D02*
X43402Y124894D01*
X66390Y124894D01*
X66390Y116406D01*
X66390Y118815D02*
X43402Y118815D01*
X43402Y121224D02*
X66390Y121224D01*
X66390Y123633D02*
X43402Y123633D01*
X43402Y103706D02*
X66390Y103706D01*
X43402Y103706D02*
X43402Y112194D01*
X66390Y112194D01*
X66390Y103706D01*
X66390Y106115D02*
X43402Y106115D01*
X43402Y108524D02*
X66390Y108524D01*
X66390Y110933D02*
X43402Y110933D01*
X43402Y91006D02*
X66390Y91006D01*
X43402Y91006D02*
X43402Y99494D01*
X66390Y99494D01*
X66390Y91006D01*
X66390Y93415D02*
X43402Y93415D01*
X43402Y95824D02*
X66390Y95824D01*
X66390Y98233D02*
X43402Y98233D01*
X187610Y91006D02*
X210598Y91006D01*
X187610Y91006D02*
X187610Y99494D01*
X210598Y99494D01*
X210598Y91006D01*
X210598Y93415D02*
X187610Y93415D01*
X187610Y95824D02*
X210598Y95824D01*
X210598Y98233D02*
X187610Y98233D01*
X187610Y103706D02*
X210598Y103706D01*
X187610Y103706D02*
X187610Y112194D01*
X210598Y112194D01*
X210598Y103706D01*
X210598Y106115D02*
X187610Y106115D01*
X187610Y108524D02*
X210598Y108524D01*
X210598Y110933D02*
X187610Y110933D01*
X187610Y116406D02*
X210598Y116406D01*
X187610Y116406D02*
X187610Y124894D01*
X210598Y124894D01*
X210598Y116406D01*
X210598Y118815D02*
X187610Y118815D01*
X187610Y121224D02*
X210598Y121224D01*
X210598Y123633D02*
X187610Y123633D01*
X187610Y129106D02*
X210598Y129106D01*
X187610Y129106D02*
X187610Y137594D01*
X210598Y137594D01*
X210598Y129106D01*
X210598Y131515D02*
X187610Y131515D01*
X187610Y133924D02*
X210598Y133924D01*
X210598Y136333D02*
X187610Y136333D01*
X187610Y141806D02*
X210598Y141806D01*
X187610Y141806D02*
X187610Y150294D01*
X210598Y150294D01*
X210598Y141806D01*
X210598Y144215D02*
X187610Y144215D01*
X187610Y146624D02*
X210598Y146624D01*
X210598Y149033D02*
X187610Y149033D01*
X187610Y154506D02*
X210598Y154506D01*
X187610Y154506D02*
X187610Y162994D01*
X210598Y162994D01*
X210598Y154506D01*
X210598Y156915D02*
X187610Y156915D01*
X187610Y159324D02*
X210598Y159324D01*
X210598Y161733D02*
X187610Y161733D01*
X187610Y167206D02*
X210598Y167206D01*
X187610Y167206D02*
X187610Y175694D01*
X210598Y175694D01*
X210598Y167206D01*
X210598Y169615D02*
X187610Y169615D01*
X187610Y172024D02*
X210598Y172024D01*
X210598Y174433D02*
X187610Y174433D01*
X187610Y179906D02*
X210598Y179906D01*
X187610Y179906D02*
X187610Y188394D01*
X210598Y188394D01*
X210598Y179906D01*
X210598Y182315D02*
X187610Y182315D01*
X187610Y184724D02*
X210598Y184724D01*
X210598Y187133D02*
X187610Y187133D01*
X187610Y192606D02*
X210598Y192606D01*
X187610Y192606D02*
X187610Y201094D01*
X210598Y201094D01*
X210598Y192606D01*
X210598Y195015D02*
X187610Y195015D01*
X187610Y197424D02*
X210598Y197424D01*
X210598Y199833D02*
X187610Y199833D01*
X187610Y205306D02*
X210598Y205306D01*
X187610Y205306D02*
X187610Y213794D01*
X210598Y213794D01*
X210598Y205306D01*
X210598Y207715D02*
X187610Y207715D01*
X187610Y210124D02*
X210598Y210124D01*
X210598Y212533D02*
X187610Y212533D01*
X187610Y218006D02*
X210598Y218006D01*
X187610Y218006D02*
X187610Y226494D01*
X210598Y226494D01*
X210598Y218006D01*
X210598Y220415D02*
X187610Y220415D01*
X187610Y222824D02*
X210598Y222824D01*
X210598Y225233D02*
X187610Y225233D01*
X187610Y230706D02*
X210598Y230706D01*
X187610Y230706D02*
X187610Y239194D01*
X210598Y239194D01*
X210598Y230706D01*
X210598Y233115D02*
X187610Y233115D01*
X187610Y235524D02*
X210598Y235524D01*
X210598Y237933D02*
X187610Y237933D01*
X187610Y243406D02*
X210598Y243406D01*
X187610Y243406D02*
X187610Y251894D01*
X210598Y251894D01*
X210598Y243406D01*
X210598Y245815D02*
X187610Y245815D01*
X187610Y248224D02*
X210598Y248224D01*
X210598Y250633D02*
X187610Y250633D01*
X187610Y256106D02*
X210598Y256106D01*
X187610Y256106D02*
X187610Y264594D01*
X210598Y264594D01*
X210598Y256106D01*
X210598Y258515D02*
X187610Y258515D01*
X187610Y260924D02*
X210598Y260924D01*
X210598Y263333D02*
X187610Y263333D01*
D16*
X12700Y279400D03*
X241300Y279400D03*
X241300Y304800D03*
X241300Y330200D03*
X241300Y203200D03*
X241300Y76200D03*
M02*
