M48
;GenerationSoftware,Autodesk,EAGLE,9.6.2*%
;CreationDate,2023-12-20T18:24:44Z*%
FMAT,2
ICI,OFF
METRIC,TZ,000.000
T6C0.305
T5C0.381
T4C0.400
T3C0.650
T2C1.016
T1C3.302
%
G90
M71
T1
X2540Y2540
X22860Y2540
X2540Y48260
X22860Y48260
T2
X1270Y20320
X24130Y22860
X24130Y25400
X1270Y12700
X1270Y10160
X1270Y7620
X1270Y15240
X1270Y17780
X1270Y22860
X1270Y25400
X24130Y17780
X24130Y15240
X24130Y12700
X24130Y10160
X1270Y27940
X24130Y27940
X24130Y30480
X24130Y33020
X24130Y20320
X24130Y7620
T3
X15590Y45895
X9810Y45895
T4
X17018Y49545
X8382Y49545
X8382Y45365
X17018Y45365
T5
X3175Y34671
X762Y29464
T6
X3556Y8890
X3810Y41910
X22733Y8763
X3683Y24384
X3810Y21590
X3175Y39624
X22606Y36576
X15240Y17780
X11430Y24003
X13970Y24130
X9779Y43688
X9652Y27940
X7112Y27940
X11938Y42291
X13843Y43180
X10795Y36195
X11938Y36322
X3810Y6350
X19050Y28956
X11049Y42164
X18034Y43942
X21590Y39624
X21717Y12065
X22225Y38608
X21717Y13335
X7468Y23495
X8001Y12065
X8001Y13335
X23622Y44450
X19431Y41910
X5461Y34417
X15240Y10160
X5588Y29464
X7747Y30226
X11406Y32388
X9271Y32004
X17272Y29591
X8509Y28956
X20320Y4064
X3810Y45720
X8001Y41021
X15875Y43688
X18161Y41910
X19812Y34925
X14605Y29972
X762Y31496
X9271Y19558
X1270Y5080
X17780Y8890
X5080Y3810
X11938Y3302
X13970Y7620
X9398Y7620
X17653Y10795
X18288Y29464
X7493Y11176
X7620Y14605
X17907Y24257
X5080Y44450
X6350Y49530
X19050Y49530
X20066Y31750
X20701Y46228
X17780Y13970
X13589Y18542
X12700Y48260
X21590Y6350
M30