G04 EAGLE Gerber RS-274X export*
G75*
%MOMM*%
%FSLAX34Y34*%
%LPD*%
%INSoldermask Bottom*%
%IPPOS*%
%AMOC8*
5,1,8,0,0,1.08239X$1,22.5*%
G01*
%ADD10C,0.802400*%
%ADD11C,0.255816*%
%ADD12C,0.253525*%
%ADD13C,0.251966*%
%ADD14C,0.252862*%
%ADD15C,2.032000*%
%ADD16C,1.152400*%
%ADD17C,3.454400*%
%ADD18C,0.258794*%

G36*
X26735Y302272D02*
X26735Y302272D01*
X26801Y302274D01*
X26844Y302292D01*
X26891Y302300D01*
X26948Y302334D01*
X27008Y302359D01*
X27043Y302390D01*
X27084Y302415D01*
X27126Y302466D01*
X27174Y302510D01*
X27196Y302552D01*
X27225Y302589D01*
X27246Y302651D01*
X27277Y302710D01*
X27285Y302764D01*
X27297Y302801D01*
X27296Y302841D01*
X27304Y302895D01*
X27304Y306705D01*
X27293Y306770D01*
X27291Y306836D01*
X27273Y306879D01*
X27265Y306926D01*
X27231Y306983D01*
X27206Y307043D01*
X27175Y307078D01*
X27150Y307119D01*
X27099Y307161D01*
X27055Y307209D01*
X27013Y307231D01*
X26976Y307260D01*
X26914Y307281D01*
X26855Y307312D01*
X26801Y307320D01*
X26764Y307332D01*
X26724Y307331D01*
X26670Y307339D01*
X24130Y307339D01*
X24065Y307328D01*
X23999Y307326D01*
X23956Y307308D01*
X23909Y307300D01*
X23852Y307266D01*
X23792Y307241D01*
X23757Y307210D01*
X23716Y307185D01*
X23675Y307134D01*
X23626Y307090D01*
X23604Y307048D01*
X23575Y307011D01*
X23554Y306949D01*
X23523Y306890D01*
X23515Y306836D01*
X23503Y306799D01*
X23503Y306795D01*
X23503Y306794D01*
X23504Y306759D01*
X23496Y306705D01*
X23496Y302895D01*
X23507Y302830D01*
X23509Y302764D01*
X23527Y302721D01*
X23535Y302674D01*
X23569Y302617D01*
X23594Y302557D01*
X23625Y302522D01*
X23650Y302481D01*
X23701Y302440D01*
X23745Y302391D01*
X23787Y302369D01*
X23824Y302340D01*
X23886Y302319D01*
X23945Y302288D01*
X23999Y302280D01*
X24036Y302268D01*
X24076Y302269D01*
X24130Y302261D01*
X26670Y302261D01*
X26735Y302272D01*
G37*
D10*
X155900Y458950D03*
X98100Y458950D03*
D11*
X97733Y384467D02*
X92767Y384467D01*
X92767Y395433D01*
X97733Y395433D01*
X97733Y384467D01*
X97733Y386897D02*
X92767Y386897D01*
X92767Y389327D02*
X97733Y389327D01*
X97733Y391757D02*
X92767Y391757D01*
X92767Y394187D02*
X97733Y394187D01*
X105467Y384467D02*
X110433Y384467D01*
X105467Y384467D02*
X105467Y395433D01*
X110433Y395433D01*
X110433Y384467D01*
X110433Y386897D02*
X105467Y386897D01*
X105467Y389327D02*
X110433Y389327D01*
X110433Y391757D02*
X105467Y391757D01*
X105467Y394187D02*
X110433Y394187D01*
X118167Y384467D02*
X123133Y384467D01*
X118167Y384467D02*
X118167Y395433D01*
X123133Y395433D01*
X123133Y384467D01*
X123133Y386897D02*
X118167Y386897D01*
X118167Y389327D02*
X123133Y389327D01*
X123133Y391757D02*
X118167Y391757D01*
X118167Y394187D02*
X123133Y394187D01*
X130867Y384467D02*
X135833Y384467D01*
X130867Y384467D02*
X130867Y395433D01*
X135833Y395433D01*
X135833Y384467D01*
X135833Y386897D02*
X130867Y386897D01*
X130867Y389327D02*
X135833Y389327D01*
X135833Y391757D02*
X130867Y391757D01*
X130867Y394187D02*
X135833Y394187D01*
X143567Y384467D02*
X148533Y384467D01*
X143567Y384467D02*
X143567Y395433D01*
X148533Y395433D01*
X148533Y384467D01*
X148533Y386897D02*
X143567Y386897D01*
X143567Y389327D02*
X148533Y389327D01*
X148533Y391757D02*
X143567Y391757D01*
X143567Y394187D02*
X148533Y394187D01*
X156267Y384467D02*
X161233Y384467D01*
X156267Y384467D02*
X156267Y395433D01*
X161233Y395433D01*
X161233Y384467D01*
X161233Y386897D02*
X156267Y386897D01*
X156267Y389327D02*
X161233Y389327D01*
X161233Y391757D02*
X156267Y391757D01*
X156267Y394187D02*
X161233Y394187D01*
X168967Y384467D02*
X173933Y384467D01*
X168967Y384467D02*
X168967Y395433D01*
X173933Y395433D01*
X173933Y384467D01*
X173933Y386897D02*
X168967Y386897D01*
X168967Y389327D02*
X173933Y389327D01*
X173933Y391757D02*
X168967Y391757D01*
X168967Y394187D02*
X173933Y394187D01*
X181667Y384467D02*
X186633Y384467D01*
X181667Y384467D02*
X181667Y395433D01*
X186633Y395433D01*
X186633Y384467D01*
X186633Y386897D02*
X181667Y386897D01*
X181667Y389327D02*
X186633Y389327D01*
X186633Y391757D02*
X181667Y391757D01*
X181667Y394187D02*
X186633Y394187D01*
X186633Y328467D02*
X181667Y328467D01*
X181667Y339433D01*
X186633Y339433D01*
X186633Y328467D01*
X186633Y330897D02*
X181667Y330897D01*
X181667Y333327D02*
X186633Y333327D01*
X186633Y335757D02*
X181667Y335757D01*
X181667Y338187D02*
X186633Y338187D01*
X173933Y328467D02*
X168967Y328467D01*
X168967Y339433D01*
X173933Y339433D01*
X173933Y328467D01*
X173933Y330897D02*
X168967Y330897D01*
X168967Y333327D02*
X173933Y333327D01*
X173933Y335757D02*
X168967Y335757D01*
X168967Y338187D02*
X173933Y338187D01*
X161233Y328467D02*
X156267Y328467D01*
X156267Y339433D01*
X161233Y339433D01*
X161233Y328467D01*
X161233Y330897D02*
X156267Y330897D01*
X156267Y333327D02*
X161233Y333327D01*
X161233Y335757D02*
X156267Y335757D01*
X156267Y338187D02*
X161233Y338187D01*
X148533Y328467D02*
X143567Y328467D01*
X143567Y339433D01*
X148533Y339433D01*
X148533Y328467D01*
X148533Y330897D02*
X143567Y330897D01*
X143567Y333327D02*
X148533Y333327D01*
X148533Y335757D02*
X143567Y335757D01*
X143567Y338187D02*
X148533Y338187D01*
X135833Y328467D02*
X130867Y328467D01*
X130867Y339433D01*
X135833Y339433D01*
X135833Y328467D01*
X135833Y330897D02*
X130867Y330897D01*
X130867Y333327D02*
X135833Y333327D01*
X135833Y335757D02*
X130867Y335757D01*
X130867Y338187D02*
X135833Y338187D01*
X123133Y328467D02*
X118167Y328467D01*
X118167Y339433D01*
X123133Y339433D01*
X123133Y328467D01*
X123133Y330897D02*
X118167Y330897D01*
X118167Y333327D02*
X123133Y333327D01*
X123133Y335757D02*
X118167Y335757D01*
X118167Y338187D02*
X123133Y338187D01*
X110433Y328467D02*
X105467Y328467D01*
X105467Y339433D01*
X110433Y339433D01*
X110433Y328467D01*
X110433Y330897D02*
X105467Y330897D01*
X105467Y333327D02*
X110433Y333327D01*
X110433Y335757D02*
X105467Y335757D01*
X105467Y338187D02*
X110433Y338187D01*
X97733Y328467D02*
X92767Y328467D01*
X92767Y339433D01*
X97733Y339433D01*
X97733Y328467D01*
X97733Y330897D02*
X92767Y330897D01*
X92767Y333327D02*
X97733Y333327D01*
X97733Y335757D02*
X92767Y335757D01*
X92767Y338187D02*
X97733Y338187D01*
D12*
X186005Y460705D02*
X186005Y470695D01*
X194995Y470695D01*
X194995Y460705D01*
X186005Y460705D01*
X186005Y463113D02*
X194995Y463113D01*
X194995Y465521D02*
X186005Y465521D01*
X186005Y467929D02*
X194995Y467929D01*
X194995Y470337D02*
X186005Y470337D01*
X186005Y453695D02*
X186005Y443705D01*
X186005Y453695D02*
X194995Y453695D01*
X194995Y443705D01*
X186005Y443705D01*
X186005Y446113D02*
X194995Y446113D01*
X194995Y448521D02*
X186005Y448521D01*
X186005Y450929D02*
X194995Y450929D01*
X194995Y453337D02*
X186005Y453337D01*
X98095Y405715D02*
X88105Y405715D01*
X88105Y414705D01*
X98095Y414705D01*
X98095Y405715D01*
X98095Y408123D02*
X88105Y408123D01*
X88105Y410531D02*
X98095Y410531D01*
X98095Y412939D02*
X88105Y412939D01*
X105105Y405715D02*
X115095Y405715D01*
X105105Y405715D02*
X105105Y414705D01*
X115095Y414705D01*
X115095Y405715D01*
X115095Y408123D02*
X105105Y408123D01*
X105105Y410531D02*
X115095Y410531D01*
X115095Y412939D02*
X105105Y412939D01*
D13*
X31252Y302397D02*
X31252Y296789D01*
X19548Y296789D01*
X19548Y302397D01*
X31252Y302397D01*
X31252Y299183D02*
X19548Y299183D01*
X19548Y301577D02*
X31252Y301577D01*
X31252Y307203D02*
X31252Y312811D01*
X31252Y307203D02*
X19548Y307203D01*
X19548Y312811D01*
X31252Y312811D01*
X31252Y309597D02*
X19548Y309597D01*
X19548Y311991D02*
X31252Y311991D01*
D12*
X202405Y440005D02*
X212395Y440005D01*
X202405Y440005D02*
X202405Y448995D01*
X212395Y448995D01*
X212395Y440005D01*
X212395Y442413D02*
X202405Y442413D01*
X202405Y444821D02*
X212395Y444821D01*
X212395Y447229D02*
X202405Y447229D01*
X219405Y440005D02*
X229395Y440005D01*
X219405Y440005D02*
X219405Y448995D01*
X229395Y448995D01*
X229395Y440005D01*
X229395Y442413D02*
X219405Y442413D01*
X219405Y444821D02*
X229395Y444821D01*
X229395Y447229D02*
X219405Y447229D01*
X219405Y429945D02*
X229395Y429945D01*
X229395Y420955D01*
X219405Y420955D01*
X219405Y429945D01*
X219405Y423363D02*
X229395Y423363D01*
X229395Y425771D02*
X219405Y425771D01*
X219405Y428179D02*
X229395Y428179D01*
X212395Y429945D02*
X202405Y429945D01*
X212395Y429945D02*
X212395Y420955D01*
X202405Y420955D01*
X202405Y429945D01*
X202405Y423363D02*
X212395Y423363D01*
X212395Y425771D02*
X202405Y425771D01*
X202405Y428179D02*
X212395Y428179D01*
X76995Y334695D02*
X67005Y334695D01*
X76995Y334695D02*
X76995Y325705D01*
X67005Y325705D01*
X67005Y334695D01*
X67005Y328113D02*
X76995Y328113D01*
X76995Y330521D02*
X67005Y330521D01*
X67005Y332929D02*
X76995Y332929D01*
X59995Y334695D02*
X50005Y334695D01*
X59995Y334695D02*
X59995Y325705D01*
X50005Y325705D01*
X50005Y334695D01*
X50005Y328113D02*
X59995Y328113D01*
X59995Y330521D02*
X50005Y330521D01*
X50005Y332929D02*
X59995Y332929D01*
D14*
X159903Y421272D02*
X159903Y425768D01*
X172399Y425768D01*
X172399Y421272D01*
X159903Y421272D01*
X159903Y423675D02*
X172399Y423675D01*
X159903Y416268D02*
X159903Y411772D01*
X159903Y416268D02*
X172399Y416268D01*
X172399Y411772D01*
X159903Y411772D01*
X159903Y414175D02*
X172399Y414175D01*
X159903Y406768D02*
X159903Y402272D01*
X159903Y406768D02*
X172399Y406768D01*
X172399Y402272D01*
X159903Y402272D01*
X159903Y404675D02*
X172399Y404675D01*
X132401Y406768D02*
X132401Y402272D01*
X132401Y406768D02*
X144897Y406768D01*
X144897Y402272D01*
X132401Y402272D01*
X132401Y404675D02*
X144897Y404675D01*
X132401Y411772D02*
X132401Y416268D01*
X144897Y416268D01*
X144897Y411772D01*
X132401Y411772D01*
X132401Y414175D02*
X144897Y414175D01*
X132401Y421272D02*
X132401Y425768D01*
X144897Y425768D01*
X144897Y421272D01*
X132401Y421272D01*
X132401Y423675D02*
X144897Y423675D01*
D15*
X241300Y228600D03*
X241300Y254000D03*
X12700Y127000D03*
X12700Y101600D03*
D12*
X92405Y429945D02*
X102395Y429945D01*
X102395Y420955D01*
X92405Y420955D01*
X92405Y429945D01*
X92405Y423363D02*
X102395Y423363D01*
X102395Y425771D02*
X92405Y425771D01*
X92405Y428179D02*
X102395Y428179D01*
X85395Y429945D02*
X75405Y429945D01*
X85395Y429945D02*
X85395Y420955D01*
X75405Y420955D01*
X75405Y429945D01*
X75405Y423363D02*
X85395Y423363D01*
X85395Y425771D02*
X75405Y425771D01*
X75405Y428179D02*
X85395Y428179D01*
X80695Y352095D02*
X80695Y342105D01*
X71705Y342105D01*
X71705Y352095D01*
X80695Y352095D01*
X80695Y344513D02*
X71705Y344513D01*
X71705Y346921D02*
X80695Y346921D01*
X80695Y349329D02*
X71705Y349329D01*
X71705Y351737D02*
X80695Y351737D01*
X80695Y359105D02*
X80695Y369095D01*
X80695Y359105D02*
X71705Y359105D01*
X71705Y369095D01*
X80695Y369095D01*
X80695Y361513D02*
X71705Y361513D01*
X71705Y363921D02*
X80695Y363921D01*
X80695Y366329D02*
X71705Y366329D01*
X71705Y368737D02*
X80695Y368737D01*
D15*
X12700Y76200D03*
X12700Y152400D03*
X12700Y177800D03*
X12700Y203200D03*
X12700Y228600D03*
X12700Y254000D03*
D14*
X119497Y287972D02*
X119497Y292468D01*
X119497Y287972D02*
X108501Y287972D01*
X108501Y292468D01*
X119497Y292468D01*
X119497Y290375D02*
X108501Y290375D01*
X119497Y297472D02*
X119497Y301968D01*
X119497Y297472D02*
X108501Y297472D01*
X108501Y301968D01*
X119497Y301968D01*
X119497Y299875D02*
X108501Y299875D01*
X119497Y306972D02*
X119497Y311468D01*
X119497Y306972D02*
X108501Y306972D01*
X108501Y311468D01*
X119497Y311468D01*
X119497Y309375D02*
X108501Y309375D01*
X145499Y311468D02*
X145499Y306972D01*
X134503Y306972D01*
X134503Y311468D01*
X145499Y311468D01*
X145499Y309375D02*
X134503Y309375D01*
X145499Y292468D02*
X145499Y287972D01*
X134503Y287972D01*
X134503Y292468D01*
X145499Y292468D01*
X145499Y290375D02*
X134503Y290375D01*
D12*
X123495Y269825D02*
X113505Y269825D01*
X113505Y278815D01*
X123495Y278815D01*
X123495Y269825D01*
X123495Y272233D02*
X113505Y272233D01*
X113505Y274641D02*
X123495Y274641D01*
X123495Y277049D02*
X113505Y277049D01*
X130505Y269825D02*
X140495Y269825D01*
X130505Y269825D02*
X130505Y278815D01*
X140495Y278815D01*
X140495Y269825D01*
X140495Y272233D02*
X130505Y272233D01*
X130505Y274641D02*
X140495Y274641D01*
X140495Y277049D02*
X130505Y277049D01*
X101015Y286225D02*
X101015Y296215D01*
X101015Y286225D02*
X92025Y286225D01*
X92025Y296215D01*
X101015Y296215D01*
X101015Y288633D02*
X92025Y288633D01*
X92025Y291041D02*
X101015Y291041D01*
X101015Y293449D02*
X92025Y293449D01*
X92025Y295857D02*
X101015Y295857D01*
X101015Y303225D02*
X101015Y313215D01*
X101015Y303225D02*
X92025Y303225D01*
X92025Y313215D01*
X101015Y313215D01*
X101015Y305633D02*
X92025Y305633D01*
X92025Y308041D02*
X101015Y308041D01*
X101015Y310449D02*
X92025Y310449D01*
X92025Y312857D02*
X101015Y312857D01*
D14*
X102552Y223403D02*
X107048Y223403D01*
X102552Y223403D02*
X102552Y234399D01*
X107048Y234399D01*
X107048Y223403D01*
X107048Y225806D02*
X102552Y225806D01*
X102552Y228209D02*
X107048Y228209D01*
X107048Y230612D02*
X102552Y230612D01*
X102552Y233015D02*
X107048Y233015D01*
X112052Y223403D02*
X116548Y223403D01*
X112052Y223403D02*
X112052Y234399D01*
X116548Y234399D01*
X116548Y223403D01*
X116548Y225806D02*
X112052Y225806D01*
X112052Y228209D02*
X116548Y228209D01*
X116548Y230612D02*
X112052Y230612D01*
X112052Y233015D02*
X116548Y233015D01*
X121552Y223403D02*
X126048Y223403D01*
X121552Y223403D02*
X121552Y234399D01*
X126048Y234399D01*
X126048Y223403D01*
X126048Y225806D02*
X121552Y225806D01*
X121552Y228209D02*
X126048Y228209D01*
X126048Y230612D02*
X121552Y230612D01*
X121552Y233015D02*
X126048Y233015D01*
X126048Y197401D02*
X121552Y197401D01*
X121552Y208397D01*
X126048Y208397D01*
X126048Y197401D01*
X126048Y199804D02*
X121552Y199804D01*
X121552Y202207D02*
X126048Y202207D01*
X126048Y204610D02*
X121552Y204610D01*
X121552Y207013D02*
X126048Y207013D01*
X107048Y197401D02*
X102552Y197401D01*
X102552Y208397D01*
X107048Y208397D01*
X107048Y197401D01*
X107048Y199804D02*
X102552Y199804D01*
X102552Y202207D02*
X107048Y202207D01*
X107048Y204610D02*
X102552Y204610D01*
X102552Y207013D02*
X107048Y207013D01*
D12*
X110795Y245695D02*
X100805Y245695D01*
X100805Y254685D01*
X110795Y254685D01*
X110795Y245695D01*
X110795Y248103D02*
X100805Y248103D01*
X100805Y250511D02*
X110795Y250511D01*
X110795Y252919D02*
X100805Y252919D01*
X117805Y245695D02*
X127795Y245695D01*
X117805Y245695D02*
X117805Y254685D01*
X127795Y254685D01*
X127795Y245695D01*
X127795Y248103D02*
X117805Y248103D01*
X117805Y250511D02*
X127795Y250511D01*
X127795Y252919D02*
X117805Y252919D01*
X84405Y229395D02*
X84405Y219405D01*
X84405Y229395D02*
X93395Y229395D01*
X93395Y219405D01*
X84405Y219405D01*
X84405Y221813D02*
X93395Y221813D01*
X93395Y224221D02*
X84405Y224221D01*
X84405Y226629D02*
X93395Y226629D01*
X93395Y229037D02*
X84405Y229037D01*
X84405Y212395D02*
X84405Y202405D01*
X84405Y212395D02*
X93395Y212395D01*
X93395Y202405D01*
X84405Y202405D01*
X84405Y204813D02*
X93395Y204813D01*
X93395Y207221D02*
X84405Y207221D01*
X84405Y209629D02*
X93395Y209629D01*
X93395Y212037D02*
X84405Y212037D01*
X99535Y180925D02*
X109525Y180925D01*
X99535Y180925D02*
X99535Y189915D01*
X109525Y189915D01*
X109525Y180925D01*
X109525Y183333D02*
X99535Y183333D01*
X99535Y185741D02*
X109525Y185741D01*
X109525Y188149D02*
X99535Y188149D01*
X116535Y180925D02*
X126525Y180925D01*
X116535Y180925D02*
X116535Y189915D01*
X126525Y189915D01*
X126525Y180925D01*
X126525Y183333D02*
X116535Y183333D01*
X116535Y185741D02*
X126525Y185741D01*
X126525Y188149D02*
X116535Y188149D01*
X163245Y286225D02*
X163245Y296215D01*
X163245Y286225D02*
X154255Y286225D01*
X154255Y296215D01*
X163245Y296215D01*
X163245Y288633D02*
X154255Y288633D01*
X154255Y291041D02*
X163245Y291041D01*
X163245Y293449D02*
X154255Y293449D01*
X154255Y295857D02*
X163245Y295857D01*
X163245Y303225D02*
X163245Y313215D01*
X163245Y303225D02*
X154255Y303225D01*
X154255Y313215D01*
X163245Y313215D01*
X163245Y305633D02*
X154255Y305633D01*
X154255Y308041D02*
X163245Y308041D01*
X163245Y310449D02*
X154255Y310449D01*
X154255Y312857D02*
X163245Y312857D01*
D16*
X12700Y457200D03*
X241300Y50800D03*
D17*
X25400Y25400D03*
X228600Y25400D03*
X25400Y482600D03*
X228600Y482600D03*
D15*
X241300Y177800D03*
X241300Y152400D03*
X241300Y127000D03*
X241300Y101600D03*
X12700Y279400D03*
X241300Y279400D03*
X241300Y304800D03*
X241300Y330200D03*
X241300Y203200D03*
X241300Y76200D03*
D18*
X130168Y147132D02*
X123832Y147132D01*
X123832Y169868D01*
X130168Y169868D01*
X130168Y147132D01*
X130168Y149591D02*
X123832Y149591D01*
X123832Y152050D02*
X130168Y152050D01*
X130168Y154509D02*
X123832Y154509D01*
X123832Y156968D02*
X130168Y156968D01*
X130168Y159427D02*
X123832Y159427D01*
X123832Y161886D02*
X130168Y161886D01*
X130168Y164345D02*
X123832Y164345D01*
X123832Y166804D02*
X130168Y166804D01*
X130168Y169263D02*
X123832Y169263D01*
X123832Y109532D02*
X130168Y109532D01*
X123832Y109532D02*
X123832Y132268D01*
X130168Y132268D01*
X130168Y109532D01*
X130168Y111991D02*
X123832Y111991D01*
X123832Y114450D02*
X130168Y114450D01*
X130168Y116909D02*
X123832Y116909D01*
X123832Y119368D02*
X130168Y119368D01*
X130168Y121827D02*
X123832Y121827D01*
X123832Y124286D02*
X130168Y124286D01*
X130168Y126745D02*
X123832Y126745D01*
X123832Y129204D02*
X130168Y129204D01*
X130168Y131663D02*
X123832Y131663D01*
X136532Y147132D02*
X142868Y147132D01*
X136532Y147132D02*
X136532Y169868D01*
X142868Y169868D01*
X142868Y147132D01*
X142868Y149591D02*
X136532Y149591D01*
X136532Y152050D02*
X142868Y152050D01*
X142868Y154509D02*
X136532Y154509D01*
X136532Y156968D02*
X142868Y156968D01*
X142868Y159427D02*
X136532Y159427D01*
X136532Y161886D02*
X142868Y161886D01*
X142868Y164345D02*
X136532Y164345D01*
X136532Y166804D02*
X142868Y166804D01*
X142868Y169263D02*
X136532Y169263D01*
X136532Y109532D02*
X142868Y109532D01*
X136532Y109532D02*
X136532Y132268D01*
X142868Y132268D01*
X142868Y109532D01*
X142868Y111991D02*
X136532Y111991D01*
X136532Y114450D02*
X142868Y114450D01*
X142868Y116909D02*
X136532Y116909D01*
X136532Y119368D02*
X142868Y119368D01*
X142868Y121827D02*
X136532Y121827D01*
X136532Y124286D02*
X142868Y124286D01*
X142868Y126745D02*
X136532Y126745D01*
X136532Y129204D02*
X142868Y129204D01*
X142868Y131663D02*
X136532Y131663D01*
X149232Y147132D02*
X155568Y147132D01*
X149232Y147132D02*
X149232Y169868D01*
X155568Y169868D01*
X155568Y147132D01*
X155568Y149591D02*
X149232Y149591D01*
X149232Y152050D02*
X155568Y152050D01*
X155568Y154509D02*
X149232Y154509D01*
X149232Y156968D02*
X155568Y156968D01*
X155568Y159427D02*
X149232Y159427D01*
X149232Y161886D02*
X155568Y161886D01*
X155568Y164345D02*
X149232Y164345D01*
X149232Y166804D02*
X155568Y166804D01*
X155568Y169263D02*
X149232Y169263D01*
X149232Y109532D02*
X155568Y109532D01*
X149232Y109532D02*
X149232Y132268D01*
X155568Y132268D01*
X155568Y109532D01*
X155568Y111991D02*
X149232Y111991D01*
X149232Y114450D02*
X155568Y114450D01*
X155568Y116909D02*
X149232Y116909D01*
X149232Y119368D02*
X155568Y119368D01*
X155568Y121827D02*
X149232Y121827D01*
X149232Y124286D02*
X155568Y124286D01*
X155568Y126745D02*
X149232Y126745D01*
X149232Y129204D02*
X155568Y129204D01*
X155568Y131663D02*
X149232Y131663D01*
X104768Y147132D02*
X98432Y147132D01*
X98432Y169868D01*
X104768Y169868D01*
X104768Y147132D01*
X104768Y149591D02*
X98432Y149591D01*
X98432Y152050D02*
X104768Y152050D01*
X104768Y154509D02*
X98432Y154509D01*
X98432Y156968D02*
X104768Y156968D01*
X104768Y159427D02*
X98432Y159427D01*
X98432Y161886D02*
X104768Y161886D01*
X104768Y164345D02*
X98432Y164345D01*
X98432Y166804D02*
X104768Y166804D01*
X104768Y169263D02*
X98432Y169263D01*
X98432Y109532D02*
X104768Y109532D01*
X98432Y109532D02*
X98432Y132268D01*
X104768Y132268D01*
X104768Y109532D01*
X104768Y111991D02*
X98432Y111991D01*
X98432Y114450D02*
X104768Y114450D01*
X104768Y116909D02*
X98432Y116909D01*
X98432Y119368D02*
X104768Y119368D01*
X104768Y121827D02*
X98432Y121827D01*
X98432Y124286D02*
X104768Y124286D01*
X104768Y126745D02*
X98432Y126745D01*
X98432Y129204D02*
X104768Y129204D01*
X104768Y131663D02*
X98432Y131663D01*
X111132Y147132D02*
X117468Y147132D01*
X111132Y147132D02*
X111132Y169868D01*
X117468Y169868D01*
X117468Y147132D01*
X117468Y149591D02*
X111132Y149591D01*
X111132Y152050D02*
X117468Y152050D01*
X117468Y154509D02*
X111132Y154509D01*
X111132Y156968D02*
X117468Y156968D01*
X117468Y159427D02*
X111132Y159427D01*
X111132Y161886D02*
X117468Y161886D01*
X117468Y164345D02*
X111132Y164345D01*
X111132Y166804D02*
X117468Y166804D01*
X117468Y169263D02*
X111132Y169263D01*
X111132Y109532D02*
X117468Y109532D01*
X111132Y109532D02*
X111132Y132268D01*
X117468Y132268D01*
X117468Y109532D01*
X117468Y111991D02*
X111132Y111991D01*
X111132Y114450D02*
X117468Y114450D01*
X117468Y116909D02*
X111132Y116909D01*
X111132Y119368D02*
X117468Y119368D01*
X117468Y121827D02*
X111132Y121827D01*
X111132Y124286D02*
X117468Y124286D01*
X117468Y126745D02*
X111132Y126745D01*
X111132Y129204D02*
X117468Y129204D01*
X117468Y131663D02*
X111132Y131663D01*
M02*
