M48
;GenerationSoftware,Autodesk,EAGLE,9.6.2*%
;CreationDate,2024-02-07T19:02:11Z*%
FMAT,2
ICI,OFF
METRIC,TZ,000.000
T5C0.305
T4C0.400
T3C0.650
T2C1.016
T1C3.302
%
G90
M71
T1
X28448Y53848
X48768Y99568
X106172Y99568
X2540Y2540
X22860Y2540
X2540Y48260
X22860Y48260
X126492Y99568
X54356Y53848
X28448Y2540
X48768Y2540
X28448Y48260
X48768Y48260
X74676Y53848
X54356Y99568
X54356Y2540
X74676Y2540
X54356Y48260
X74676Y48260
X74676Y99568
X132080Y99568
X80264Y2540
X100584Y2540
X80264Y48260
X100584Y48260
X152400Y99568
X80264Y53848
X106172Y2540
X126492Y2540
X106172Y48260
X126492Y48260
X100584Y53848
X80264Y99568
X132080Y2540
X152400Y2540
X132080Y48260
X152400Y48260
X100584Y99568
X132080Y53848
X2540Y53848
X22860Y53848
X2540Y99568
X22860Y99568
X152400Y53848
X106172Y53848
X126492Y53848
X48768Y53848
X28448Y99568
T2
X101854Y81788
X101854Y84328
X101854Y71628
X101854Y58928
X153670Y58928
X127762Y74168
X127762Y76708
X104902Y64008
X104902Y61468
X104902Y58928
X104902Y66548
X104902Y69088
X104902Y71628
X104902Y74168
X104902Y76708
X127762Y69088
X130810Y20320
X127762Y66548
X127762Y64008
X127762Y61468
X104902Y79248
X127762Y79248
X127762Y81788
X127762Y84328
X127762Y71628
X127762Y58928
X153670Y74168
X153670Y76708
X130810Y64008
X24130Y22860
X24130Y25400
X1270Y12700
X1270Y10160
X1270Y7620
X1270Y15240
X1270Y17780
X1270Y20320
X1270Y22860
X1270Y25400
X24130Y17780
X24130Y15240
X24130Y12700
X24130Y10160
X1270Y27940
X24130Y27940
X24130Y30480
X24130Y33020
X24130Y20320
X24130Y7620
X130810Y61468
X130810Y58928
X130810Y66548
X130810Y69088
X50038Y22860
X50038Y25400
X27178Y12700
X27178Y10160
X27178Y7620
X27178Y15240
X27178Y17780
X27178Y20320
X27178Y22860
X27178Y25400
X50038Y17780
X50038Y15240
X50038Y12700
X50038Y10160
X27178Y27940
X50038Y27940
X50038Y30480
X50038Y33020
X50038Y20320
X50038Y7620
X130810Y71628
X130810Y74168
X130810Y76708
X153670Y69088
X75946Y22860
X75946Y25400
X53086Y12700
X53086Y10160
X53086Y7620
X53086Y15240
X53086Y17780
X53086Y20320
X53086Y22860
X53086Y25400
X75946Y17780
X75946Y15240
X75946Y12700
X75946Y10160
X53086Y27940
X75946Y27940
X75946Y30480
X75946Y33020
X75946Y20320
X75946Y7620
X153670Y66548
X153670Y64008
X153670Y61468
X130810Y79248
X101854Y22860
X101854Y25400
X78994Y12700
X78994Y10160
X78994Y7620
X78994Y15240
X78994Y17780
X78994Y20320
X78994Y22860
X78994Y25400
X101854Y17780
X101854Y15240
X101854Y12700
X101854Y10160
X78994Y27940
X101854Y27940
X101854Y30480
X101854Y33020
X101854Y20320
X101854Y7620
X153670Y79248
X153670Y81788
X153670Y84328
X153670Y71628
X127762Y22860
X127762Y25400
X104902Y12700
X104902Y10160
X104902Y7620
X104902Y15240
X104902Y17780
X104902Y20320
X104902Y22860
X104902Y25400
X127762Y17780
X127762Y15240
X127762Y12700
X127762Y10160
X104902Y27940
X127762Y27940
X127762Y30480
X127762Y33020
X127762Y20320
X127762Y7620
X153670Y22860
X153670Y25400
X130810Y12700
X130810Y10160
X130810Y7620
X130810Y15240
X130810Y17780
X130810Y22860
X130810Y25400
X153670Y17780
X153670Y15240
X153670Y12700
X153670Y10160
X130810Y27940
X153670Y27940
X153670Y30480
X153670Y33020
X153670Y20320
X153670Y7620
X24130Y74168
X24130Y76708
X1270Y64008
X1270Y61468
X1270Y58928
X1270Y66548
X1270Y69088
X1270Y71628
X1270Y74168
X1270Y76708
X24130Y69088
X24130Y66548
X24130Y64008
X24130Y61468
X1270Y79248
X24130Y79248
X24130Y81788
X24130Y84328
X24130Y71628
X24130Y58928
X50038Y74168
X50038Y76708
X27178Y64008
X27178Y61468
X27178Y58928
X27178Y66548
X27178Y69088
X27178Y71628
X27178Y74168
X27178Y76708
X50038Y69088
X50038Y66548
X50038Y64008
X50038Y61468
X27178Y79248
X50038Y79248
X50038Y81788
X50038Y84328
X50038Y71628
X50038Y58928
X75946Y74168
X75946Y76708
X53086Y64008
X53086Y61468
X53086Y58928
X53086Y66548
X53086Y69088
X53086Y71628
X53086Y74168
X53086Y76708
X75946Y69088
X75946Y66548
X75946Y64008
X75946Y61468
X53086Y79248
X75946Y79248
X75946Y81788
X75946Y84328
X75946Y71628
X75946Y58928
X101854Y74168
X101854Y76708
X78994Y64008
X78994Y61468
X78994Y58928
X78994Y66548
X78994Y69088
X78994Y71628
X78994Y74168
X78994Y76708
X101854Y69088
X101854Y66548
X101854Y64008
X101854Y61468
X78994Y79248
X101854Y79248
T3
X15590Y45895
X9810Y45895
X41498Y45895
X35718Y45895
X67406Y45895
X61626Y45895
X93314Y45895
X87534Y45895
X119222Y45895
X113442Y45895
X145130Y45895
X139350Y45895
X15590Y97203
X9810Y97203
X41498Y97203
X35718Y97203
X67406Y97203
X61626Y97203
X93314Y97203
X87534Y97203
X119222Y97203
X113442Y97203
X145130Y97203
X139350Y97203
T4
X17018Y49545
X8382Y49545
X8382Y45365
X17018Y45365
X42926Y49545
X34290Y49545
X34290Y45365
X42926Y45365
X68834Y49545
X60198Y49545
X60198Y45365
X68834Y45365
X94742Y49545
X86106Y49545
X86106Y45365
X94742Y45365
X120650Y49545
X112014Y49545
X112014Y45365
X120650Y45365
X86106Y100853
X86106Y96673
X94742Y96673
X120650Y100853
X146558Y100853
X137922Y100853
X137922Y96673
X146558Y96673
X112014Y100853
X17018Y100853
X120650Y96673
X8382Y100853
X8382Y96673
X17018Y96673
X146558Y45365
X146558Y49545
X137922Y49545
X137922Y45365
X68834Y100853
X60198Y100853
X60198Y96673
X68834Y96673
X42926Y100853
X34290Y100853
X34290Y96673
X42926Y96673
X94742Y100853
X112014Y96673
T5
X123063Y41910
X121381Y21559
X117094Y25273
X120752Y21003
X117729Y24130
X118872Y10160
X109220Y29464
X111379Y30226
X115546Y31880
X112903Y32004
X137008Y23495
X138049Y28956
X149860Y4064
X132715Y34671
X143002Y35179
X144526Y26162
X133350Y45720
X137541Y41021
X145415Y43688
X147701Y41910
X149352Y34925
X144145Y29972
X130302Y31496
X138811Y19558
X133350Y6350
X130810Y5080
X147320Y8890
X134620Y3810
X141478Y3302
X143510Y7620
X138938Y7620
X147574Y10795
X137033Y11176
X137160Y14605
X147701Y24384
X134620Y44450
X135890Y49530
X148590Y49530
X149606Y31750
X150241Y46228
X147447Y14351
X143129Y18542
X142240Y48260
X151130Y6350
X133096Y8890
X133350Y41910
X152273Y8763
X133223Y24384
X133350Y21590
X132715Y39624
X152146Y36576
X144526Y18034
X140970Y24003
X146812Y30099
X147320Y18415
X139319Y43688
X138811Y27940
X136652Y27940
X141478Y42291
X143383Y43180
X140335Y36195
X141478Y36322
X147828Y29464
X148590Y28956
X140589Y42164
X147574Y43942
X151130Y39624
X151257Y12065
X151765Y38608
X151257Y13335
X130302Y29464
X137541Y12065
X137541Y13335
X153162Y44450
X148971Y41910
X147289Y21559
X143002Y25273
X146660Y21003
X143637Y24130
X144780Y10160
X135128Y29464
X137287Y30226
X141454Y31880
X138811Y32004
X7468Y74803
X8509Y80264
X20320Y55372
X3175Y85979
X13462Y86487
X14986Y77470
X3810Y97028
X8001Y92329
X15875Y94996
X18161Y93218
X19812Y86233
X14605Y81280
X762Y82804
X9271Y70866
X3810Y57658
X1270Y56388
X17780Y60198
X5080Y55118
X11938Y54610
X13970Y58928
X9398Y58928
X18034Y62103
X7493Y62484
X7620Y65913
X18161Y75692
X5080Y95758
X6350Y100838
X19050Y100838
X20066Y83058
X20701Y97536
X17907Y65659
X13589Y69850
X12700Y99568
X21590Y57658
X3556Y60198
X3810Y93218
X22733Y60071
X3683Y75692
X3810Y72898
X3175Y90932
X22606Y87884
X14986Y69342
X11430Y75311
X17272Y81407
X17780Y69723
X9779Y94996
X9271Y79248
X7112Y79248
X11938Y93599
X13843Y94488
X10795Y87503
X11938Y87630
X18288Y80772
X19050Y80264
X11049Y93472
X18034Y95250
X21590Y90932
X21717Y63373
X22225Y89916
X21717Y64643
X762Y80772
X8001Y63373
X8001Y64643
X23622Y95758
X19431Y93218
X17749Y72867
X13462Y76581
X17120Y72311
X14097Y75438
X15240Y61468
X5588Y80772
X7747Y81534
X11914Y83188
X9271Y83312
X33376Y74803
X34417Y80264
X46228Y55372
X29083Y85979
X39370Y86487
X40894Y77470
X29718Y97028
X33909Y92329
X41783Y94996
X44069Y93218
X45720Y86233
X40513Y81280
X26670Y82804
X35179Y70866
X29718Y57658
X27178Y56388
X43688Y60198
X30988Y55118
X37846Y54610
X39878Y58928
X35306Y58928
X43942Y62103
X33401Y62484
X33528Y65913
X44069Y75692
X30988Y95758
X32258Y100838
X44958Y100838
X45974Y83058
X46609Y97536
X43815Y65659
X39497Y69850
X38608Y99568
X47498Y57658
X29464Y60198
X29718Y93218
X48641Y60071
X29591Y75692
X29718Y72898
X29083Y90932
X48514Y87884
X40894Y69342
X37338Y75311
X43180Y81407
X43688Y69723
X35687Y94996
X35179Y79248
X33020Y79248
X37846Y93599
X39751Y94488
X36703Y87503
X37846Y87630
X44196Y80772
X44958Y80264
X36957Y93472
X43942Y95250
X47498Y90932
X47625Y63373
X48133Y89916
X47625Y64643
X26670Y80772
X33909Y63373
X33909Y64643
X49530Y95758
X45339Y93218
X43657Y72867
X39370Y76581
X43028Y72311
X40005Y75438
X41148Y61468
X31496Y80772
X33655Y81534
X37822Y83188
X35179Y83312
X59284Y74803
X60325Y80264
X72136Y55372
X54991Y85979
X65278Y86487
X66802Y77470
X55626Y97028
X59817Y92329
X67691Y94996
X69977Y93218
X71628Y86233
X66421Y81280
X52578Y82804
X61087Y70866
X55626Y57658
X53086Y56388
X69596Y60198
X56896Y55118
X63754Y54610
X65786Y58928
X61214Y58928
X69850Y62103
X59309Y62484
X59436Y65913
X69977Y75692
X56896Y95758
X58166Y100838
X70866Y100838
X71882Y83058
X72517Y97536
X69723Y65659
X65405Y69850
X67691Y43688
X73406Y57658
X55372Y60198
X55626Y93218
X74549Y60071
X55499Y75692
X55626Y72898
X54991Y90932
X74422Y87884
X66802Y69342
X63246Y75311
X69088Y81407
X69596Y69723
X61595Y94996
X61087Y79248
X58928Y79248
X63754Y93599
X65659Y94488
X62611Y87503
X63754Y87630
X70104Y80772
X70866Y80264
X62865Y93472
X69850Y95250
X73406Y90932
X73533Y63373
X74041Y89916
X73533Y64643
X52578Y80772
X59817Y63373
X59817Y64643
X75438Y95758
X71247Y93218
X69565Y72867
X65278Y76581
X68936Y72311
X65913Y75438
X67056Y61468
X57404Y80772
X59563Y81534
X63730Y83188
X61087Y83312
X85192Y74803
X86233Y80264
X98044Y55372
X80899Y85979
X91186Y86487
X92710Y77470
X81534Y97028
X85725Y92329
X93599Y94996
X95885Y93218
X97536Y86233
X92329Y81280
X78486Y82804
X86995Y70866
X81534Y57658
X78994Y56388
X95504Y60198
X82804Y55118
X89662Y54610
X91694Y58928
X87122Y58928
X95758Y62103
X85217Y62484
X85344Y65913
X95885Y75692
X82804Y95758
X84074Y100838
X96774Y100838
X97790Y83058
X98425Y97536
X95631Y65659
X91313Y69850
X90424Y99568
X99314Y57658
X81280Y60198
X81534Y93218
X100457Y60071
X81407Y75692
X81534Y72898
X80899Y90932
X100330Y87884
X92710Y69342
X89154Y75311
X94996Y81407
X95504Y69723
X87503Y94996
X86995Y79248
X84836Y79248
X89662Y93599
X91567Y94488
X88519Y87503
X89662Y87630
X96012Y80772
X96774Y80264
X88773Y93472
X95758Y95250
X99314Y90932
X99441Y63373
X99949Y89916
X99441Y64643
X78486Y80772
X85725Y63373
X85725Y64643
X101346Y95758
X97155Y93218
X95473Y72867
X91186Y76581
X94844Y72311
X91821Y75438
X92964Y61468
X83312Y80772
X85471Y81534
X89638Y83188
X86995Y83312
X111100Y74803
X112141Y80264
X123952Y55372
X106807Y85979
X117094Y86487
X118618Y77470
X107442Y97028
X111633Y92329
X119507Y94996
X121793Y93218
X123444Y86233
X118237Y81280
X104394Y82804
X112903Y70866
X107442Y57658
X104902Y56388
X121412Y60198
X108712Y55118
X115570Y54610
X117602Y58928
X113030Y58928
X121666Y62103
X111125Y62484
X111252Y65913
X121793Y75692
X108712Y95758
X109982Y100838
X122682Y100838
X123698Y83058
X124333Y97536
X121539Y65659
X117221Y69850
X116332Y99568
X125222Y57658
X107188Y60198
X107442Y93218
X126365Y60071
X107315Y75692
X107442Y72898
X106807Y90932
X126238Y87884
X118618Y69342
X115062Y75311
X120904Y81407
X121412Y69723
X113411Y94996
X112903Y79248
X110744Y79248
X115570Y93599
X117475Y94488
X114427Y87503
X115570Y87630
X121920Y80772
X122682Y80264
X114681Y93472
X121666Y95250
X125222Y90932
X125349Y63373
X125857Y89916
X125349Y64643
X104394Y80772
X111633Y63373
X111633Y64643
X127254Y95758
X123063Y93218
X121381Y72867
X117094Y76581
X120752Y72311
X117729Y75438
X118872Y61468
X109220Y80772
X111379Y81534
X115546Y83188
X112903Y83312
X137008Y74803
X138049Y80264
X149860Y55372
X132715Y85979
X143002Y86487
X144526Y77470
X133350Y97028
X137541Y92329
X145415Y94996
X147701Y93218
X149352Y86233
X144145Y81280
X130302Y82804
X138811Y70866
X133350Y57658
X130810Y56388
X147320Y60198
X134620Y55118
X141478Y54610
X143510Y58928
X138938Y58928
X147574Y62103
X137033Y62484
X137160Y65913
X147701Y75692
X134620Y95758
X135890Y100838
X148590Y100838
X149606Y83058
X150241Y97536
X147447Y65659
X143129Y69850
X142240Y99568
X151130Y57658
X133096Y60198
X133350Y93218
X152273Y60071
X133223Y75692
X133350Y72898
X132715Y90932
X152146Y87884
X144526Y69342
X140970Y75311
X146812Y81407
X147320Y69723
X139319Y94996
X138811Y79248
X136652Y79248
X141478Y93599
X143383Y94488
X140335Y87503
X141478Y87630
X147828Y80772
X148590Y80264
X140589Y93472
X147574Y95250
X151130Y90932
X151257Y63373
X151765Y89916
X151257Y64643
X130302Y80772
X137541Y63373
X137541Y64643
X153162Y95758
X148971Y93218
X147289Y72867
X143002Y76581
X146660Y72311
X143637Y75438
X144780Y61468
X135128Y80772
X137287Y81534
X141454Y83188
X138811Y83312
X7468Y23495
X8509Y28956
X20320Y4064
X3175Y34671
X13462Y35179
X14986Y26162
X3810Y45720
X8001Y41021
X15875Y43688
X18161Y41910
X19812Y34925
X14605Y29972
X762Y31496
X9271Y19558
X3810Y6350
X1270Y5080
X17780Y8890
X5080Y3810
X11938Y3302
X13970Y7620
X9398Y7620
X18034Y10795
X7493Y11176
X7620Y14605
X18161Y24384
X5080Y44450
X6350Y49530
X19050Y49530
X20066Y31750
X20701Y46228
X17907Y14351
X13589Y18542
X12700Y48260
X21590Y6350
X3556Y8890
X3810Y41910
X22733Y8763
X3683Y24384
X3810Y21590
X3175Y39624
X22606Y36576
X14986Y18034
X11430Y24003
X17272Y30099
X17780Y18415
X9779Y43688
X9271Y27940
X7112Y27940
X11938Y42291
X13843Y43180
X10795Y36195
X11938Y36322
X18288Y29464
X19050Y28956
X11049Y42164
X18034Y43942
X21590Y39624
X21717Y12065
X22225Y38608
X21717Y13335
X762Y29464
X8001Y12065
X8001Y13335
X23622Y44450
X19431Y41910
X17749Y21559
X13462Y25273
X17120Y21003
X14097Y24130
X15240Y10160
X5588Y29464
X7747Y30226
X11914Y31880
X9271Y32004
X33376Y23495
X34417Y28956
X46228Y4064
X29083Y34671
X39370Y35179
X40894Y26162
X29718Y45720
X33909Y41021
X41783Y43688
X44069Y41910
X45720Y34925
X40513Y29972
X26670Y31496
X35179Y19558
X29718Y6350
X27178Y5080
X43688Y8890
X30988Y3810
X37846Y3302
X39878Y7620
X35306Y7620
X43942Y10795
X33401Y11176
X33528Y14605
X44069Y24384
X30988Y44450
X32258Y49530
X44958Y49530
X45974Y31750
X46609Y46228
X43815Y14351
X39497Y18542
X38608Y48260
X47498Y6350
X29464Y8890
X29718Y41910
X48641Y8763
X29591Y24384
X29718Y21590
X29083Y39624
X48514Y36576
X40894Y18034
X37338Y24003
X43180Y30099
X43688Y18415
X35687Y43688
X35179Y27940
X33020Y27940
X37846Y42291
X39751Y43180
X36703Y36195
X37846Y36322
X44196Y29464
X44958Y28956
X36957Y42164
X43942Y43942
X47498Y39624
X47625Y12065
X48133Y38608
X47625Y13335
X26670Y29464
X33909Y12065
X33909Y13335
X49530Y44450
X45339Y41910
X43657Y21559
X39370Y25273
X43028Y21003
X40005Y24130
X41148Y10160
X31496Y29464
X33655Y30226
X37822Y31880
X35179Y32004
X59284Y23495
X60325Y28956
X72136Y4064
X54991Y34671
X65278Y35179
X66802Y26162
X55626Y45720
X59817Y41021
X69977Y41910
X71628Y34925
X66421Y29972
X52578Y31496
X61087Y19558
X55626Y6350
X53086Y5080
X69596Y8890
X56896Y3810
X63754Y3302
X65786Y7620
X61214Y7620
X69850Y10795
X59309Y11176
X59436Y14605
X69977Y24384
X56896Y44450
X58166Y49530
X70866Y49530
X71882Y31750
X72517Y46228
X69723Y14351
X65405Y18542
X64516Y48260
X73406Y6350
X55372Y8890
X55626Y41910
X74549Y8763
X55499Y24384
X55626Y21590
X54991Y39624
X74422Y36576
X66802Y18034
X63246Y24003
X69088Y30099
X69596Y18415
X61595Y43688
X61087Y27940
X58928Y27940
X63754Y42291
X65659Y43180
X62611Y36195
X63754Y36322
X70104Y29464
X70866Y28956
X62865Y42164
X69850Y43942
X64516Y99568
X73406Y39624
X73533Y12065
X74041Y38608
X73533Y13335
X52578Y29464
X59817Y12065
X59817Y13335
X75438Y44450
X71247Y41910
X69565Y21559
X65278Y25273
X68936Y21003
X65913Y24130
X67056Y10160
X57404Y29464
X59563Y30226
X63730Y31880
X61087Y32004
X85192Y23495
X86233Y28956
X98044Y4064
X80899Y34671
X91186Y35179
X92710Y26162
X81534Y45720
X85725Y41021
X93599Y43688
X95885Y41910
X97536Y34925
X92329Y29972
X78486Y31496
X86995Y19558
X81534Y6350
X78994Y5080
X95504Y8890
X82804Y3810
X89662Y3302
X91694Y7620
X87122Y7620
X95758Y10795
X85217Y11176
X85344Y14605
X95885Y24384
X82804Y44450
X84074Y49530
X96774Y49530
X97790Y31750
X98425Y46228
X95631Y14351
X91313Y18542
X90424Y48260
X99314Y6350
X81280Y8890
X81534Y41910
X100457Y8763
X81407Y24384
X81534Y21590
X80899Y39624
X100330Y36576
X92710Y18034
X89154Y24003
X94996Y30099
X95504Y18415
X87503Y43688
X86995Y27940
X84836Y27940
X89662Y42291
X91567Y43180
X88519Y36195
X89662Y36322
X96012Y29464
X96774Y28956
X88773Y42164
X95758Y43942
X99314Y39624
X99441Y12065
X99949Y38608
X99441Y13335
X78486Y29464
X85725Y12065
X85725Y13335
X101346Y44450
X97155Y41910
X95473Y21559
X91186Y25273
X94844Y21003
X91821Y24130
X92964Y10160
X83312Y29464
X85471Y30226
X89638Y31880
X86995Y32004
X111100Y23495
X112141Y28956
X123952Y4064
X106807Y34671
X117094Y35179
X118618Y26162
X107442Y45720
X111633Y41021
X119507Y43688
X121793Y41910
X123444Y34925
X118237Y29972
X104394Y31496
X112903Y19558
X107442Y6350
X104902Y5080
X121412Y8890
X108712Y3810
X115570Y3302
X117602Y7620
X113030Y7620
X121666Y10795
X111125Y11176
X111252Y14605
X121793Y24384
X108712Y44450
X109982Y49530
X122682Y49530
X123698Y31750
X124333Y46228
X121539Y14351
X117221Y18542
X116332Y48260
X125222Y6350
X107188Y8890
X107442Y41910
X126365Y8763
X107315Y24384
X107442Y21590
X106807Y39624
X126238Y36576
X118618Y18034
X115062Y24003
X120904Y30099
X121412Y18415
X113411Y43688
X112903Y27940
X110744Y27940
X115570Y42291
X117475Y43180
X114427Y36195
X115570Y36322
X121920Y29464
X122682Y28956
X114681Y42164
X121666Y43942
X125222Y39624
X125349Y12065
X125857Y38608
X125349Y13335
X104394Y29464
X111633Y12065
X111633Y13335
X127254Y44450
M30